<svg id="Layer_1" data-name="Layer 1" xmlns="http://www.w3.org/2000/svg" viewBox="0 0 379.31 114.93"><defs><style>.cls-1{fill:#007dc4;}</style></defs><title>ploud_io_logo</title><path class="cls-1" d="M134.62,81.43V53.5q0-7.32,4.49-11.78t11.75-4.46a16.06,16.06,0,0,1,11.78,4.52,15.44,15.44,0,0,1,4.59,11.47q0,7.38-4.52,11.69a15.13,15.13,0,0,1-10.8,4.3,14,14,0,0,1-6.77-1.6,11.39,11.39,0,0,1-4.55-4.37h-0.12V81.43h-5.84Zm16.24-38.76a10,10,0,0,0-7.5,3,10.47,10.47,0,0,0-2.89,7.6,10.46,10.46,0,0,0,2.89,7.6,10,10,0,0,0,7.5,3,10.12,10.12,0,0,0,7.57-3,10.45,10.45,0,0,0,2.89-7.63,10.46,10.46,0,0,0-2.89-7.63,10.13,10.13,0,0,0-7.57-3" transform="translate(-10.58 -2.04)"/><rect class="cls-1" x="167.47" y="35.22" width="5.84" height="43.68"/><path class="cls-1" d="M222.81,54.27a15.45,15.45,0,0,1,4.58,11.47,15.45,15.45,0,0,1-4.58,11.48,17.62,17.62,0,0,1-23.56,0,15.44,15.44,0,0,1-4.58-11.48,15.44,15.44,0,0,1,4.58-11.47,17.61,17.61,0,0,1,23.56,0m-19.35,19.1a11.16,11.16,0,0,0,15.13,0,10.44,10.44,0,0,0,2.9-7.63,10.45,10.45,0,0,0-2.9-7.63,11.18,11.18,0,0,0-15.13,0,10.45,10.45,0,0,0-2.89,7.63,10.43,10.43,0,0,0,2.89,7.63" transform="translate(-10.58 -2.04)"/><path class="cls-1" d="M162.76,41.78a15.44,15.44,0,0,1,4.58,11.47,15.43,15.43,0,0,1-4.58,11.47,17.61,17.61,0,0,1-23.56,0,15.43,15.43,0,0,1-4.59-11.47,15.43,15.43,0,0,1,4.59-11.47,17.61,17.61,0,0,1,23.56,0m-19.35,19.1a11.16,11.16,0,0,0,15.13,0,10.43,10.43,0,0,0,2.89-7.63,10.45,10.45,0,0,0-2.89-7.63,11.17,11.17,0,0,0-15.13,0,10.45,10.45,0,0,0-2.89,7.63,10.43,10.43,0,0,0,2.89,7.63" transform="translate(-10.58 -2.04)"/><path class="cls-1" d="M261.29,66.42V50.55h5.84V66.42q0,7.38-4.06,11.35t-11,4q-6.89,0-11-3.94t-4.06-11.38V50.55H243V66.42q0,4.86,2.46,7.38a10.18,10.18,0,0,0,13.41,0q2.45-2.52,2.46-7.38" transform="translate(-10.58 -2.04)"/><path class="cls-1" d="M309.46,37.26V65.5q0,7.33-4.49,11.78t-11.75,4.46a16.05,16.05,0,0,1-11.78-4.52,15.42,15.42,0,0,1-4.58-11.48q0-7.38,4.52-11.69a15.12,15.12,0,0,1,10.8-4.31,14,14,0,0,1,6.77,1.6,11.39,11.39,0,0,1,4.55,4.37h0.12V37.26h5.85ZM293.21,76.33a10,10,0,0,0,7.51-3,10.47,10.47,0,0,0,2.89-7.6,10.46,10.46,0,0,0-2.89-7.6,10,10,0,0,0-7.51-3,10.12,10.12,0,0,0-7.56,3,10.45,10.45,0,0,0-2.89,7.63,10.43,10.43,0,0,0,2.89,7.63,10.1,10.1,0,0,0,7.56,3" transform="translate(-10.58 -2.04)"/><path class="cls-1" d="M326.77,80.57a4.15,4.15,0,1,1,1.17-2.89,3.9,3.9,0,0,1-1.17,2.89" transform="translate(-10.58 -2.04)"/><path class="cls-1" d="M343.45,46.24a3.9,3.9,0,0,1-2.86-1.2,4,4,0,0,1-1.2-2.92,4.07,4.07,0,0,1,7-2.86,4,4,0,0,1,1.17,2.86A4,4,0,0,1,346.34,45a3.88,3.88,0,0,1-2.89,1.2m3,34.7h-5.85V50.55h5.85V80.94Z" transform="translate(-10.58 -2.04)"/><path class="cls-1" d="M385.31,54.27a15.43,15.43,0,0,1,4.58,11.47,15.43,15.43,0,0,1-4.58,11.47,17.61,17.61,0,0,1-23.56,0,15.43,15.43,0,0,1-4.58-11.47,15.43,15.43,0,0,1,4.58-11.47,17.6,17.6,0,0,1,23.56,0M366,73.38a11.16,11.16,0,0,0,15.13,0A10.45,10.45,0,0,0,384,65.75a10.44,10.44,0,0,0-2.89-7.63,11.16,11.16,0,0,0-15.13,0,10.43,10.43,0,0,0-2.89,7.63A10.44,10.44,0,0,0,366,73.38" transform="translate(-10.58 -2.04)"/><polygon class="cls-1" points="86.6 79.04 52.44 98.76 52.44 114.93 100.6 87.12 100.6 31.04 86.6 38.71 86.6 79.04"/><polygon class="cls-1" points="50.3 16.16 83.68 35.44 98.04 27.56 50.3 0 0.82 28.57 16.45 35.71 50.3 16.16"/><polygon class="cls-1" points="14 79.04 14 39.24 0 32.84 0 87.12 48.16 114.93 48.16 98.76 14 79.04"/><path class="cls-1" d="M74.49,57.71c-1.9,0-4.48,0-4.48,0V56.92s0-1.05-.11-1.56a10.78,10.78,0,0,0-21.34,0H47.49c-3.78,0-7.3,2.69-6.77,10.28,0.16,2.28,2.37,5.18,6.77,5.18H74.22c3.78,0,6.87-2.77,6.87-6.15s-2.19-6.85-6.6-6.94" transform="translate(-10.58 -2.04)"/></svg>