<?xml version="1.0" encoding="iso-8859-1"?>
<!-- Generator: Adobe Illustrator 19.0.0, SVG Export Plug-In . SVG Version: 6.00 Build 0)  -->
<svg version="1.1" id="Capa_1" xmlns="http://www.w3.org/2000/svg" xmlns:xlink="http://www.w3.org/1999/xlink" x="0px" y="0px"
	 viewBox="0 0 512 512" style="enable-background:new 0 0 512 512;" xml:space="preserve">
<path style="fill:#CAE8F9;" d="M512,76l-4.2,43.5l-76.899,236.1c-16.5-6-35.7-10.801-57.601-14.702H138.701
	c-21.901,3.9-41.102,8.701-57.601,14.702L61,123.999l-54.699-1.5L0,76c0-9.6,6.599-18.9,17.999-27.601
	C55.201,20.799,148.299,0,256,0s200.799,20.799,238.001,48.399C505.401,57.1,512,66.4,512,76z"/>
<path style="fill:#B7E0F6;" d="M512,76l-4.2,43.5l-76.899,236.1c-16.5-6-35.7-10.801-57.601-14.702H256V0
	c107.701,0,200.799,20.799,238.001,48.399C505.401,57.1,512,66.4,512,76z"/>
<polygon style="fill:#57555C;" points="391,151 391,421 361,451 151,451 121,421 121,151 151,121 361,121 "/>
<polygon style="fill:#3C3A41;" points="391,151 391,421 361,451 256,451 256,121 361,121 "/>
<rect x="151" y="121" style="fill:#1DE8F1;" width="210" height="330"/>
<rect x="256" y="121" style="fill:#1BD9DE;" width="105" height="330"/>
<g>
	<path style="fill:#787780;" d="M391,106v45H121v-45c0-24.901,20.099-45,45-45h180C370.901,61,391,81.099,391,106z"/>
	<path style="fill:#787780;" d="M391,421v46c0,24.901-20.099,45-45,45H166c-24.901,0-45-20.099-45-45v-46H391z"/>
</g>
<g>
	<path style="fill:#57555C;" d="M391,421v46c0,24.901-20.099,45-45,45h-90v-91H391z"/>
	<path style="fill:#57555C;" d="M391,106v45H256V61h90C370.901,61,391,81.099,391,106z"/>
</g>
<path style="fill:#FEDB41;" d="M286,181c-11.7,0-22.2,4.499-30,11.7c-9.3,8.099-15,20.099-15,33.3s5.7,25.199,15,33.3
	c7.8,7.2,18.3,11.7,30,11.7c24.901,0,45-20.101,45-45C331,201.099,310.901,181,286,181z"/>
<path style="fill:#B7E0F6;" d="M296.499,335.499L256,388.299L230.799,421H151v-81.301l64.501-64.2c5.7-5.999,15.298-5.999,20.999,0
	L296.499,335.499z"/>
<polygon style="fill:#A4D9F5;" points="296.499,335.499 256,388.299 256,295 "/>
<path style="fill:#FCBF29;" d="M331,226c0,24.899-20.099,45-45,45c-11.7,0-22.2-4.501-30-11.7v-66.6c7.8-7.202,18.3-11.7,30-11.7
	C310.901,181,331,201.099,331,226z"/>
<path style="fill:#E5E5E5;" d="M361,339.699V421H189.699L256,355l49.501-49.501c5.7-5.999,15.298-5.999,20.999,0L361,339.699z"/>
<path style="fill:#CAE8F9;" d="M361,339.699V421H256v-66l49.501-49.501c5.7-5.999,15.298-5.999,20.999,0L361,339.699z"/>
<path style="fill:#1BD9DE;" d="M432.193,130.157C425.679,131.99,421,137.823,421,144.59v296.024c0,4.878,2.358,9.434,6.343,12.246
	c2.563,1.816,5.596,2.754,8.657,2.754c1.685,0,3.384-0.278,5.01-0.864C498.856,434.257,512,408.769,512,391V76
	C512,97.305,480.707,116.508,432.193,130.157z"/>
<path style="fill:#1DE8F1;" d="M0,76v315c0,17.769,13.144,43.257,70.99,63.75c1.626,0.586,3.325,0.864,5.01,0.864
	c3.062,0,6.094-0.938,8.657-2.754c3.984-2.813,6.343-7.368,6.343-12.246V144.59c0-6.767-4.679-12.6-11.193-14.432
	C31.293,116.508,0,97.305,0,76z"/>
<g>
</g>
<g>
</g>
<g>
</g>
<g>
</g>
<g>
</g>
<g>
</g>
<g>
</g>
<g>
</g>
<g>
</g>
<g>
</g>
<g>
</g>
<g>
</g>
<g>
</g>
<g>
</g>
<g>
</g>
</svg>
