<?xml version="1.0" encoding="iso-8859-1"?>
<!-- Generator: Adobe Illustrator 19.0.0, SVG Export Plug-In . SVG Version: 6.00 Build 0)  -->
<svg version="1.1" id="Capa_1" xmlns="http://www.w3.org/2000/svg" xmlns:xlink="http://www.w3.org/1999/xlink" x="0px" y="0px"
	 viewBox="0 0 512 512" style="enable-background:new 0 0 512 512;" xml:space="preserve">
<rect x="155.86" y="136.98" style="fill:#FDB655;" width="49.27" height="56.06"/>
<rect x="205.12" y="136.98" style="fill:#6BECFE;" width="151.02" height="56.06"/>
<path style="fill:#5377A2;" d="M380.999,237.677V134.999C380.999,65.964,325.035,10,256,10l0,0
	c-69.035,0-124.999,55.964-124.999,124.999v102.678c-14.969,2.942-26.263,16.131-26.263,31.962l0,0
	c0,17.441,13.705,31.68,30.932,32.538c9.32-11.068,23.272-18.106,38.872-18.106h51.747l7.023-24.312
	c-30.012-8.875-52.666-34.887-56.603-66.709h-20.853v-56.065h20.243v-25.893h84.532l25.378-31.377l28.137,31.377h21.755v25.893
	h20.243v56.065H335.29c-3.936,31.822-26.59,57.834-56.603,66.709l7.023,24.312h51.747c15.6,0,29.552,7.038,38.872,18.106
	c17.228-0.858,30.932-15.097,30.932-32.538l0,0C407.262,253.807,395.968,240.618,380.999,237.677z"/>
<g>
	<polygon style="fill:#FFD8B9;" points="335.901,136.984 335.901,111.091 314.146,111.091 286.009,79.715 260.632,111.091 
		176.099,111.091 176.099,136.984 	"/>
	<path style="fill:#FFD8B9;" d="M335.29,193.049H176.71c3.936,31.822,26.59,57.834,56.603,66.709l-10.589,36.658L256,316.585
		l33.277-20.168l-10.589-36.658C308.7,250.884,331.354,224.872,335.29,193.049z"/>
</g>
<path d="M314.89,175.02c-0.649,0-1.309-0.07-1.95-0.2c-0.64-0.13-1.27-0.32-1.87-0.57s-1.189-0.56-1.729-0.92
	c-0.55-0.36-1.06-0.78-1.521-1.24c-0.46-0.46-0.88-0.98-1.239-1.52c-0.36-0.54-0.67-1.13-0.92-1.73s-0.44-1.23-0.57-1.87
	s-0.2-1.3-0.2-1.95s0.07-1.31,0.2-1.96c0.13-0.64,0.32-1.27,0.57-1.87s0.56-1.18,0.92-1.72c0.359-0.55,0.779-1.06,1.239-1.53
	c0.461-0.46,0.971-0.87,1.521-1.24c0.54-0.36,1.13-0.67,1.729-0.92c0.601-0.25,1.23-0.44,1.87-0.57c1.29-0.26,2.62-0.26,3.91,0
	c0.641,0.13,1.26,0.32,1.87,0.57c0.6,0.25,1.18,0.56,1.72,0.92c0.551,0.37,1.06,0.78,1.52,1.24c0.47,0.47,0.88,0.98,1.25,1.53
	c0.359,0.54,0.67,1.12,0.92,1.72s0.439,1.23,0.57,1.87c0.13,0.65,0.189,1.309,0.189,1.96c0,0.65-0.059,1.31-0.189,1.95
	c-0.131,0.64-0.32,1.27-0.57,1.87s-0.561,1.18-0.92,1.73c-0.37,0.54-0.78,1.06-1.25,1.52c-0.46,0.46-0.97,0.88-1.52,1.24
	c-0.54,0.36-1.12,0.67-1.72,0.92c-0.61,0.25-1.229,0.44-1.87,0.57C316.2,174.95,315.55,175.02,314.89,175.02z"/>
<path style="fill:#DCFEFF;" d="M256,343.548c-135.701,0-245.709-32.049-245.709-71.583v158.452C10.291,469.951,120.299,502,256,502
	s245.709-32.049,245.709-71.583V271.965C501.709,311.499,391.701,343.548,256,343.548z"/>
<path style="fill:#FF5B70;" d="M256,343.548c48.667,0,94.027-4.123,132.196-11.234c-1.333-26.874-23.543-48.243-50.738-48.243
	h-51.747l3.566,12.346L256,316.585l-33.277-20.168l3.566-12.346h-51.747c-27.195,0-49.405,21.37-50.738,48.243
	C161.973,339.425,207.333,343.548,256,343.548z"/>
<g>
	<path style="fill:#FDB655;" d="M58.94,229.206c-30.554,11.931-48.649,26.729-48.649,42.759s18.095,30.828,48.649,42.759V229.206z"
		/>
	<path style="fill:#FDB655;" d="M453.06,229.206v85.519c30.554-11.931,48.648-26.729,48.648-42.759S483.614,241.137,453.06,229.206z
		"/>
</g>
<path d="M50.508,439.116c-2.162,0-4.338-0.697-6.17-2.136l-0.224-0.176c-2.511-1.972-3.823-4.905-3.823-7.868
	c-0.001-2.163,0.696-4.341,2.136-6.173c3.411-4.343,9.696-5.1,14.041-1.688l0.224,0.176c2.511,1.972,3.823,4.905,3.823,7.868
	c0.001,2.162-0.696,4.34-2.136,6.173C56.406,437.804,53.472,439.116,50.508,439.116z"/>
<polygon style="fill:#6BECFE;" points="244.117,408.776 267.721,426.133 291.329,408.776 311.384,419.558 250.263,344.019 
	194.945,412.386 220.513,426.133 "/>
<path style="fill:#5377A2;" d="M291.329,408.776l-23.608,17.357l-23.604-17.357l-23.603,17.357l-25.569-13.747l-38.895,48.07
	C186.933,464.726,221.154,467,256,467c30.986,0,61.474-1.8,89.564-5.2l-34.18-42.242L291.329,408.776z"/>
<g>
	<path style="fill:#6BECFE;" d="M156.049,460.456l38.895-48.07l3.764-4.652l-28.159-24.177l-75.244,64.604
		c4.864,1.384,10.148,2.764,15.914,4.115c15.415,3.613,32.413,6.607,50.466,8.931C159.796,460.964,157.916,460.714,156.049,460.456z
		"/>
	<path style="fill:#6BECFE;" d="M341.45,369.684l-39.083,38.73l9.017,11.144l0,0l34.18,42.242
		c-3.465,0.419-6.968,0.814-10.503,1.184c23.756-2.489,46.028-6.093,65.718-10.708c6.992-1.639,13.296-3.319,18.97-4.999
		L341.45,369.684z"/>
</g>
<path d="M456.698,219.891c-3.078-1.201-6.549-0.806-9.278,1.057c-2.727,1.864-4.359,4.954-4.359,8.258v78.467
	c-13.091,4.687-28.672,9.041-46.522,12.794c-1.016-4.2-2.469-8.221-4.301-12.021c14.814-6.695,25.024-21.586,25.024-38.806
	c0-17.432-10.651-32.852-26.263-39.333v-95.306C390.999,60.561,330.439,0,256,0S121.001,60.561,121.001,134.999v95.306
	c-15.611,6.482-26.263,21.902-26.263,39.334c0,17.219,10.209,32.111,25.023,38.806c-1.832,3.8-3.285,7.821-4.301,12.021
	c-17.849-3.753-33.43-8.107-46.521-12.793v-78.467c0-3.304-1.632-6.394-4.359-8.258c-2.729-1.863-6.2-2.258-9.278-1.057
	C18.8,234.145,0.291,251.665,0.291,271.965v158.452c0,24.306,27.376,45.128,79.17,60.217C126.752,504.412,189.448,512,256,512
	s129.248-7.588,176.539-21.365c51.794-15.089,79.17-35.912,79.17-60.217V271.965C511.709,251.665,493.2,234.145,456.698,219.891z
	 M463.06,244.49c18.176,8.957,28.649,18.845,28.649,27.475c0,0.346-0.024,0.695-0.056,1.045c-0.012,0.122-0.025,0.245-0.041,0.368
	c-0.028,0.221-0.066,0.443-0.106,0.666c-0.073,0.392-0.16,0.785-0.273,1.181c-0.003,0.012-0.006,0.024-0.009,0.036
	c-1.506,5.204-6.471,10.744-14.334,16.184c-3.88,2.655-8.5,5.303-13.827,7.904V244.49H463.06z M132.93,247.489
	c4.689-0.922,8.071-5.033,8.071-9.813V134.999C141.001,71.588,192.589,20,256,20s114.999,51.588,114.999,114.999v102.678
	c0,4.779,3.382,8.891,8.071,9.813c10.541,2.071,18.191,11.387,18.191,22.15c0,10.562-7.237,19.477-17.118,21.917
	c-10.995-10.83-26.079-17.486-42.685-17.486h-44.227l-2.331-8.067c0.879-0.369,1.749-0.754,2.612-1.149
	c0.291-0.133,0.577-0.275,0.866-0.411c0.57-0.269,1.14-0.538,1.703-0.818c0.338-0.168,0.672-0.343,1.007-0.516
	c0.507-0.26,1.013-0.521,1.514-0.79c0.353-0.189,0.701-0.384,1.051-0.578c0.476-0.264,0.951-0.529,1.421-0.801
	c0.356-0.206,0.71-0.416,1.063-0.627c0.457-0.273,0.912-0.549,1.364-0.83c0.351-0.218,0.701-0.439,1.049-0.662
	c0.447-0.286,0.89-0.577,1.331-0.871c0.342-0.228,0.684-0.456,1.023-0.689c0.442-0.303,0.879-0.612,1.314-0.923
	c0.328-0.234,0.657-0.466,0.981-0.704c0.445-0.326,0.883-0.66,1.321-0.994c0.306-0.233,0.614-0.462,0.916-0.699
	c0.475-0.372,0.943-0.753,1.411-1.135c0.255-0.208,0.514-0.411,0.766-0.622c0.708-0.59,1.407-1.19,2.095-1.801
	c0.151-0.134,0.296-0.273,0.446-0.408c0.541-0.486,1.079-0.976,1.607-1.475c0.266-0.251,0.525-0.509,0.788-0.764
	c0.405-0.392,0.81-0.783,1.207-1.183c0.283-0.284,0.559-0.574,0.838-0.861c0.368-0.38,0.736-0.76,1.097-1.147
	c0.284-0.304,0.563-0.612,0.843-0.919c0.345-0.38,0.689-0.76,1.027-1.146c0.28-0.318,0.556-0.64,0.831-0.962
	c0.329-0.386,0.656-0.774,0.979-1.165c0.27-0.328,0.539-0.657,0.804-0.988c0.318-0.397,0.632-0.798,0.943-1.2
	c0.258-0.333,0.516-0.667,0.769-1.003c0.31-0.413,0.614-0.83,0.918-1.249c0.243-0.335,0.487-0.669,0.726-1.007
	c0.309-0.439,0.61-0.884,0.911-1.328c0.22-0.324,0.443-0.646,0.659-0.974c0.332-0.503,0.653-1.014,0.974-1.524
	c0.174-0.276,0.354-0.549,0.525-0.827c0.481-0.782,0.95-1.571,1.408-2.367c0.132-0.231,0.257-0.467,0.387-0.699
	c0.326-0.579,0.65-1.16,0.963-1.747c0.177-0.332,0.345-0.668,0.517-1.002c0.256-0.496,0.513-0.991,0.76-1.492
	c0.178-0.361,0.349-0.727,0.523-1.091c0.23-0.482,0.459-0.964,0.68-1.451c0.171-0.377,0.337-0.756,0.503-1.135
	c0.211-0.482,0.42-0.965,0.623-1.451c0.161-0.386,0.318-0.773,0.474-1.161c0.196-0.488,0.388-0.978,0.575-1.471
	c0.148-0.389,0.295-0.779,0.438-1.171c0.183-0.502,0.36-1.007,0.535-1.514c0.133-0.387,0.267-0.773,0.395-1.162
	c0.173-0.526,0.338-1.055,0.502-1.585c0.116-0.374,0.234-0.747,0.345-1.124c0.168-0.571,0.326-1.147,0.483-1.723
	c0.093-0.34,0.19-0.677,0.279-1.019c0.184-0.704,0.354-1.414,0.52-2.124c0.051-0.217,0.107-0.431,0.157-0.648
	c0.005-0.024,0.012-0.047,0.017-0.071h12.457c5.522,0,10-4.477,10-10v-56.065c0-5.523-4.478-10-10-10h-10.242v-15.893
	c0-5.523-4.478-10-10-10H318.61l-25.156-28.053c-1.956-2.181-4.755-3.407-7.7-3.32c-2.929,0.074-5.678,1.43-7.521,3.708
	l-22.375,27.665h-79.76c-5.522,0-10,4.477-10,10v15.893h-10.242c-5.522,0-10,4.477-10,10v56.065c0,5.523,4.478,10,10,10h12.457
	c0.005,0.024,0.012,0.047,0.017,0.071c0.049,0.217,0.106,0.432,0.157,0.648c0.167,0.711,0.337,1.42,0.52,2.124
	c0.089,0.341,0.186,0.679,0.279,1.019c0.157,0.576,0.315,1.152,0.483,1.723c0.111,0.376,0.229,0.749,0.344,1.124
	c0.164,0.53,0.329,1.059,0.502,1.585c0.128,0.389,0.262,0.775,0.395,1.162c0.175,0.507,0.352,1.011,0.535,1.514
	c0.143,0.392,0.289,0.782,0.438,1.171c0.187,0.492,0.379,0.982,0.575,1.471c0.156,0.388,0.313,0.776,0.474,1.161
	c0.203,0.486,0.412,0.969,0.623,1.451c0.166,0.379,0.332,0.759,0.503,1.135c0.221,0.486,0.451,0.969,0.68,1.451
	c0.174,0.364,0.345,0.729,0.523,1.091c0.247,0.501,0.504,0.996,0.76,1.492c0.173,0.334,0.341,0.671,0.518,1.002
	c0.313,0.587,0.637,1.167,0.963,1.747c0.13,0.232,0.255,0.468,0.387,0.699c0.457,0.797,0.927,1.586,1.408,2.367
	c0.171,0.278,0.351,0.551,0.525,0.827c0.322,0.51,0.643,1.021,0.975,1.524c0.216,0.327,0.439,0.649,0.659,0.974
	c0.301,0.445,0.602,0.889,0.911,1.328c0.238,0.338,0.483,0.672,0.726,1.007c0.303,0.418,0.607,0.836,0.918,1.249
	c0.253,0.337,0.511,0.67,0.769,1.003c0.312,0.402,0.625,0.803,0.944,1.2c0.266,0.331,0.534,0.661,0.804,0.988
	c0.323,0.391,0.65,0.78,0.979,1.165c0.275,0.322,0.551,0.643,0.831,0.962c0.339,0.385,0.682,0.766,1.027,1.146
	c0.28,0.307,0.559,0.615,0.843,0.919c0.361,0.386,0.729,0.767,1.097,1.147c0.279,0.288,0.555,0.577,0.838,0.861
	c0.397,0.399,0.803,0.791,1.208,1.183c0.263,0.254,0.522,0.512,0.788,0.764c0.528,0.499,1.066,0.988,1.607,1.475
	c0.15,0.135,0.295,0.274,0.446,0.408c0.688,0.611,1.387,1.211,2.095,1.801c0.253,0.211,0.512,0.414,0.766,0.622
	c0.468,0.381,0.935,0.763,1.411,1.135c0.302,0.237,0.61,0.466,0.916,0.699c0.438,0.334,0.877,0.668,1.321,0.994
	c0.324,0.238,0.653,0.47,0.981,0.704c0.436,0.311,0.872,0.62,1.314,0.923c0.339,0.232,0.68,0.461,1.023,0.689
	c0.441,0.294,0.884,0.585,1.331,0.871c0.348,0.223,0.698,0.444,1.049,0.662c0.452,0.281,0.907,0.557,1.364,0.83
	c0.353,0.211,0.706,0.421,1.063,0.627c0.47,0.272,0.945,0.538,1.421,0.801c0.35,0.194,0.698,0.389,1.051,0.578
	c0.501,0.269,1.007,0.53,1.514,0.79c0.335,0.172,0.669,0.348,1.007,0.516c0.563,0.28,1.133,0.549,1.703,0.818
	c0.289,0.136,0.575,0.278,0.866,0.411c0.863,0.395,1.733,0.78,2.612,1.149l-2.331,8.067h-44.227
	c-16.606,0-31.69,6.656-42.686,17.485c-9.881-2.441-17.118-11.356-17.118-21.918C114.738,258.876,122.389,249.561,132.93,247.489z
	 M256,304.891l-21.545-13.057l1.441-4.988l7.023-24.312c1.525-5.282-1.499-10.806-6.771-12.365c-0.78-0.231-1.553-0.477-2.321-0.733
	c-0.251-0.084-0.499-0.174-0.749-0.261c-0.516-0.179-1.03-0.36-1.539-0.549c-0.291-0.108-0.579-0.221-0.868-0.333
	c-0.465-0.18-0.929-0.364-1.389-0.554c-0.297-0.123-0.593-0.247-0.888-0.374c-0.454-0.195-0.906-0.395-1.355-0.599
	c-0.284-0.129-0.568-0.257-0.85-0.39c-0.473-0.223-0.941-0.453-1.408-0.686c-0.247-0.123-0.497-0.243-0.742-0.369
	c-0.607-0.311-1.208-0.633-1.804-0.961c-0.098-0.054-0.197-0.104-0.294-0.158c-0.69-0.384-1.372-0.781-2.046-1.187
	c-0.21-0.126-0.415-0.259-0.624-0.387c-0.465-0.287-0.928-0.575-1.385-0.872c-0.25-0.163-0.497-0.329-0.745-0.495
	c-0.411-0.274-0.82-0.552-1.224-0.834c-0.255-0.178-0.509-0.359-0.762-0.541c-0.395-0.284-0.787-0.573-1.176-0.865
	c-0.244-0.184-0.489-0.367-0.731-0.554c-0.405-0.313-0.804-0.631-1.202-0.952c-0.214-0.173-0.429-0.342-0.641-0.517
	c-0.489-0.404-0.97-0.817-1.447-1.234c-0.112-0.098-0.226-0.192-0.337-0.29c-0.587-0.52-1.164-1.049-1.732-1.588
	c-0.15-0.143-0.296-0.29-0.446-0.434c-0.414-0.4-0.826-0.802-1.23-1.211c-0.196-0.198-0.387-0.401-0.581-0.602
	c-0.352-0.365-0.701-0.733-1.045-1.106c-0.202-0.219-0.401-0.439-0.6-0.66c-0.331-0.368-0.658-0.74-0.981-1.115
	c-0.192-0.223-0.385-0.447-0.574-0.673c-0.332-0.396-0.658-0.796-0.981-1.199c-0.167-0.208-0.337-0.415-0.501-0.625
	c-0.379-0.484-0.749-0.974-1.115-1.467c-0.1-0.134-0.203-0.266-0.302-0.401c-0.465-0.636-0.92-1.281-1.363-1.933
	c-0.086-0.127-0.168-0.257-0.253-0.384c-0.35-0.522-0.695-1.048-1.032-1.58c-0.14-0.221-0.275-0.445-0.412-0.668
	c-0.275-0.446-0.547-0.895-0.813-1.348c-0.146-0.25-0.29-0.502-0.433-0.754c-0.25-0.439-0.495-0.881-0.735-1.325
	c-0.138-0.255-0.275-0.511-0.41-0.768c-0.242-0.462-0.478-0.927-0.71-1.395c-0.119-0.241-0.241-0.48-0.358-0.723
	c-0.26-0.54-0.511-1.085-0.757-1.632c-0.077-0.172-0.159-0.342-0.235-0.514c-0.322-0.73-0.632-1.466-0.929-2.209
	c-0.037-0.091-0.07-0.184-0.106-0.276c-0.254-0.643-0.5-1.29-0.735-1.942c-0.086-0.238-0.166-0.478-0.249-0.717
	c-0.179-0.512-0.354-1.026-0.521-1.544c-0.089-0.276-0.174-0.553-0.26-0.83c-0.082-0.266-0.159-0.535-0.239-0.803l0,0h134.033
	c-0.079,0.268-0.156,0.536-0.239,0.803c-0.086,0.277-0.171,0.555-0.26,0.83c-0.167,0.518-0.342,1.031-0.521,1.544
	c-0.083,0.239-0.163,0.479-0.249,0.717c-0.235,0.652-0.481,1.299-0.735,1.942c-0.036,0.092-0.069,0.185-0.106,0.276
	c-0.297,0.743-0.608,1.479-0.929,2.209c-0.076,0.173-0.157,0.342-0.235,0.514c-0.246,0.547-0.497,1.092-0.757,1.632
	c-0.117,0.242-0.238,0.482-0.358,0.723c-0.232,0.467-0.467,0.933-0.709,1.395c-0.135,0.257-0.272,0.513-0.41,0.768
	c-0.241,0.445-0.486,0.887-0.736,1.326c-0.143,0.251-0.286,0.502-0.432,0.751c-0.266,0.454-0.539,0.904-0.815,1.351
	c-0.137,0.222-0.271,0.446-0.411,0.666c-0.336,0.532-0.681,1.058-1.032,1.58c-0.085,0.127-0.167,0.257-0.253,0.384
	c-0.444,0.652-0.898,1.296-1.363,1.933c-0.099,0.135-0.202,0.267-0.302,0.401c-0.366,0.493-0.736,0.983-1.115,1.467
	c-0.165,0.21-0.334,0.417-0.501,0.625c-0.323,0.403-0.649,0.803-0.981,1.199c-0.19,0.226-0.382,0.449-0.574,0.673
	c-0.323,0.375-0.65,0.747-0.981,1.115c-0.199,0.221-0.398,0.442-0.6,0.66c-0.344,0.373-0.693,0.74-1.045,1.106
	c-0.193,0.201-0.385,0.403-0.581,0.602c-0.404,0.41-0.816,0.812-1.23,1.211c-0.149,0.144-0.295,0.291-0.446,0.434
	c-0.568,0.538-1.145,1.068-1.732,1.588c-0.111,0.098-0.225,0.192-0.337,0.29c-0.477,0.417-0.958,0.83-1.447,1.234
	c-0.211,0.175-0.427,0.345-0.641,0.517c-0.397,0.321-0.797,0.64-1.202,0.952c-0.242,0.187-0.486,0.37-0.731,0.554
	c-0.389,0.292-0.78,0.581-1.176,0.865c-0.253,0.182-0.506,0.362-0.761,0.541c-0.405,0.283-0.813,0.56-1.224,0.834
	c-0.248,0.166-0.495,0.332-0.745,0.495c-0.458,0.297-0.922,0.587-1.388,0.874c-0.207,0.128-0.412,0.259-0.621,0.385
	c-0.675,0.406-1.356,0.803-2.047,1.188c-0.097,0.054-0.197,0.105-0.294,0.158c-0.596,0.328-1.197,0.649-1.804,0.961
	c-0.246,0.126-0.495,0.246-0.742,0.369c-0.467,0.233-0.935,0.463-1.409,0.686c-0.281,0.132-0.566,0.261-0.85,0.39
	c-0.449,0.204-0.9,0.404-1.355,0.599c-0.295,0.126-0.591,0.251-0.888,0.374c-0.46,0.19-0.924,0.374-1.389,0.554
	c-0.289,0.112-0.577,0.225-0.868,0.333c-0.509,0.19-1.024,0.371-1.539,0.549c-0.25,0.087-0.498,0.177-0.749,0.261
	c-0.768,0.256-1.541,0.503-2.321,0.733c-5.272,1.559-8.297,7.083-6.771,12.365l7.023,24.312l1.441,4.988L256,304.891z
	 M165.856,183.049v-36.065l0,0h29.269v36.065l0,0H165.856z M268.407,117.38l17.994-22.249l20.299,22.636
	c1.897,2.115,4.604,3.324,7.445,3.324h11.756v5.893H186.099l0,0v-5.893h74.533C263.651,121.091,266.509,119.728,268.407,117.38z
	 M346.144,183.049H215.125v-8.033h64.873c5.523,0,10-4.477,10-10s-4.477-10-10-10h-64.873v-8.032h131.019l0,0L346.144,183.049
	L346.144,183.049z M135.151,324.167c1.538-5.701,4.282-10.888,7.926-15.294c0.079-0.087,0.166-0.165,0.242-0.255
	c6.77-8.041,16.262-13.094,26.553-14.275c0.148-0.017,0.296-0.032,0.445-0.047c0.54-0.056,1.083-0.1,1.627-0.134
	c0.177-0.011,0.354-0.025,0.532-0.034c0.686-0.035,1.375-0.057,2.067-0.057h38.46c-0.015,0.063-0.024,0.126-0.038,0.189
	c-0.03,0.135-0.057,0.271-0.081,0.406c-0.024,0.135-0.045,0.269-0.064,0.404c-0.018,0.133-0.034,0.266-0.047,0.4
	c-0.013,0.137-0.023,0.274-0.03,0.411c-0.007,0.13-0.013,0.26-0.014,0.39c-0.002,0.139,0,0.278,0.004,0.417
	c0.003,0.128,0.008,0.255,0.016,0.381c0.009,0.14,0.023,0.28,0.038,0.419c0.013,0.124,0.027,0.248,0.045,0.371
	c0.021,0.14,0.046,0.28,0.073,0.419c0.023,0.12,0.045,0.24,0.072,0.359c0.032,0.141,0.07,0.279,0.108,0.418
	c0.032,0.115,0.063,0.231,0.098,0.345c0.043,0.139,0.093,0.275,0.142,0.412c0.04,0.111,0.079,0.223,0.123,0.333
	c0.055,0.136,0.115,0.269,0.176,0.402c0.049,0.107,0.095,0.215,0.147,0.32c0.066,0.133,0.139,0.262,0.21,0.392
	c0.056,0.101,0.11,0.203,0.169,0.303c0.078,0.13,0.163,0.256,0.247,0.382c0.063,0.094,0.122,0.19,0.188,0.282
	c0.091,0.127,0.189,0.249,0.285,0.372c0.068,0.086,0.132,0.174,0.203,0.259c0.105,0.125,0.218,0.245,0.331,0.365
	c0.07,0.076,0.137,0.154,0.21,0.228c0.125,0.127,0.259,0.247,0.392,0.367c0.067,0.061,0.131,0.125,0.2,0.185
	c0.159,0.137,0.327,0.265,0.496,0.393c0.049,0.037,0.095,0.078,0.145,0.114c0.223,0.162,0.454,0.316,0.693,0.461l16.639,10.084
	l16.639,10.084c1.593,0.965,3.388,1.448,5.183,1.448c1.795,0,3.59-0.483,5.183-1.448l16.639-10.084l16.639-10.084
	c0.239-0.145,0.47-0.299,0.693-0.461c0.05-0.036,0.096-0.077,0.145-0.114c0.169-0.127,0.337-0.256,0.496-0.393
	c0.069-0.059,0.133-0.124,0.2-0.185c0.133-0.121,0.266-0.24,0.392-0.367c0.072-0.073,0.139-0.151,0.208-0.226
	c0.112-0.121,0.226-0.241,0.332-0.367c0.07-0.083,0.134-0.171,0.202-0.257c0.097-0.124,0.195-0.246,0.286-0.374
	c0.066-0.092,0.125-0.188,0.188-0.282c0.084-0.127,0.169-0.252,0.247-0.382c0.06-0.099,0.113-0.201,0.169-0.303
	c0.072-0.13,0.144-0.259,0.21-0.392c0.052-0.105,0.099-0.213,0.147-0.32c0.061-0.133,0.121-0.266,0.176-0.402
	c0.044-0.11,0.083-0.222,0.124-0.334c0.049-0.136,0.098-0.272,0.142-0.41c0.036-0.115,0.067-0.231,0.099-0.347
	c0.038-0.138,0.075-0.276,0.107-0.416c0.027-0.119,0.05-0.239,0.072-0.359c0.027-0.139,0.052-0.279,0.073-0.419
	c0.018-0.123,0.032-0.246,0.045-0.37c0.015-0.14,0.029-0.28,0.038-0.421c0.008-0.126,0.013-0.253,0.016-0.38
	c0.004-0.139,0.006-0.278,0.004-0.418c-0.002-0.13-0.007-0.26-0.014-0.39c-0.007-0.137-0.017-0.274-0.03-0.411
	c-0.013-0.133-0.029-0.266-0.047-0.4c-0.018-0.135-0.039-0.269-0.063-0.404c-0.024-0.136-0.051-0.271-0.081-0.406
	c-0.014-0.063-0.023-0.126-0.038-0.189h38.46c0.691,0,1.38,0.022,2.066,0.057c0.178,0.009,0.354,0.022,0.532,0.034
	c0.544,0.035,1.087,0.078,1.627,0.134c0.148,0.015,0.297,0.03,0.444,0.047c10.291,1.181,19.783,6.235,26.553,14.276
	c0.079,0.094,0.168,0.175,0.25,0.266c3.64,4.404,6.38,9.586,7.917,15.283c-34.112,5.727-72.508,8.922-112.12,9.333
	c-0.343,0.003-0.683,0.009-1.027,0.012c-2.563,0.023-5.129,0.036-7.701,0.036c-2.572,0-5.138-0.013-7.701-0.036
	c-0.344-0.003-0.684-0.009-1.027-0.012C207.66,333.089,169.264,329.894,135.151,324.167z M398.497,442.54
	c-1.637,0.384-3.299,0.758-4.973,1.127c-0.446,0.099-0.894,0.197-1.343,0.294c-1.568,0.341-3.148,0.677-4.747,1.005
	c-0.131,0.027-0.259,0.055-0.391,0.082c-1.69,0.346-3.403,0.682-5.127,1.014c-0.486,0.094-0.975,0.186-1.463,0.279
	c-1.639,0.31-3.289,0.616-4.957,0.913c-0.124,0.022-0.246,0.045-0.37,0.067c-1.828,0.325-3.679,0.64-5.542,0.949
	c-0.378,0.063-0.757,0.125-1.136,0.187c-3.917,0.642-7.905,1.252-11.966,1.827c-0.084,0.012-0.167,0.024-0.251,0.035
	c-2.112,0.298-4.242,0.587-6.391,0.866l-30.682-37.918l-3.33-4.115l25.621-25.39l58.872,58.34
	C399.713,442.248,399.118,442.394,398.497,442.54z M318.035,454.529c-0.437,0.035-0.877,0.068-1.315,0.103
	c-2.043,0.163-4.095,0.315-6.152,0.462c-1.003,0.071-2.007,0.141-3.013,0.208c-1.736,0.116-3.476,0.225-5.221,0.329
	c-1.088,0.065-2.176,0.13-3.269,0.19c-1.855,0.103-3.716,0.197-5.581,0.286c-1.068,0.051-2.136,0.102-3.207,0.148
	c-2.002,0.087-4.01,0.167-6.022,0.238c-0.958,0.034-1.918,0.066-2.878,0.097c-2.178,0.07-4.36,0.133-6.548,0.184
	c-0.716,0.017-1.433,0.031-2.15,0.046c-2.433,0.051-4.869,0.094-7.314,0.123c-0.382,0.004-0.765,0.007-1.148,0.011
	C261.484,456.982,258.746,457,256,457c-3.427,0-6.855-0.023-10.281-0.068c-0.04,0-0.081-0.001-0.121-0.002
	c-24.046-0.321-47.962-1.747-70.44-4.194l6.422-7.936l15.927-19.682l18.271,9.823c0.4,0.215,0.812,0.396,1.229,0.552
	c0.141,0.053,0.286,0.089,0.429,0.136c0.281,0.091,0.561,0.178,0.847,0.243c0.17,0.039,0.341,0.065,0.512,0.095
	c0.264,0.046,0.528,0.086,0.794,0.111c0.18,0.017,0.358,0.026,0.538,0.033c0.129,0.005,0.257,0.023,0.385,0.023
	c0.208,0,0.416-0.012,0.624-0.025c0.037-0.002,0.074-0.001,0.112-0.004c0.411-0.03,0.82-0.092,1.225-0.173
	c0.067-0.014,0.134-0.025,0.201-0.04c0.394-0.087,0.782-0.199,1.164-0.334c0.068-0.024,0.136-0.05,0.204-0.075
	c0.385-0.145,0.763-0.312,1.131-0.505c0.048-0.025,0.094-0.054,0.142-0.08c0.385-0.211,0.762-0.442,1.122-0.707l8.839-6.5l8.839-6.5
	l17.68,13.001c1.545,1.136,3.335,1.773,5.155,1.913c2.333,0.18,4.715-0.458,6.694-1.913l18.515-13.613l12.716,6.836l16.459,20.341
	l4.901,6.058c-0.108,0.01-0.217,0.02-0.326,0.03C323.298,454.085,320.672,454.314,318.035,454.529z M142.713,448.319
	c-0.083-0.014-0.167-0.027-0.25-0.041c-1.416-0.235-2.821-0.475-4.217-0.719c-0.108-0.019-0.217-0.037-0.325-0.056
	c-1.398-0.245-2.785-0.495-4.162-0.748c-0.089-0.016-0.178-0.032-0.267-0.049c-2.934-0.542-5.82-1.103-8.655-1.683
	c-0.045-0.009-0.089-0.019-0.134-0.028c-1.307-0.268-2.601-0.54-3.886-0.816c-0.499-0.107-0.992-0.217-1.488-0.326
	c-0.83-0.181-1.659-0.363-2.479-0.547c-0.143-0.032-0.284-0.065-0.427-0.098l54.126-46.473l14.275,12.257l-32.98,40.758
	c-1.548-0.229-3.086-0.464-4.613-0.703c-0.041-0.006-0.082-0.013-0.123-0.019C145.634,448.797,144.169,448.56,142.713,448.319z
	 M267.722,413.721l-17.681-13.001c-2.202-1.62-4.904-2.227-7.48-1.822c-1.546,0.243-3.048,0.85-4.37,1.822l-18.51,13.612
	l-9.371-5.039l39.952-49.376l33.809,41.783L267.722,413.721z M48.939,244.49v54.859c-5.328-2.601-9.948-5.249-13.828-7.904
	c-7.863-5.44-12.828-10.979-14.334-16.184c-0.003-0.012-0.006-0.024-0.009-0.036c-0.113-0.396-0.201-0.789-0.274-1.181
	c-0.04-0.222-0.079-0.445-0.106-0.666c-0.016-0.123-0.03-0.246-0.041-0.368c-0.032-0.35-0.056-0.698-0.056-1.045
	C20.291,263.335,30.764,253.447,48.939,244.49z M256,492c-146.037,0-235.709-35.868-235.709-61.582V305.481
	c5.755,4.372,12.748,8.535,20.965,12.481c0.14,0.068,0.28,0.136,0.421,0.203c0.842,0.402,1.699,0.8,2.567,1.197
	c0.396,0.182,0.787,0.365,1.189,0.546c0.29,0.13,0.59,0.258,0.882,0.388c2.841,1.264,5.812,2.5,8.907,3.71
	c0.027,0.01,0.053,0.021,0.08,0.032c0.003,0.001,0.006,0.002,0.009,0.003c7.348,2.869,15.391,5.588,24.15,8.14
	c40.901,11.916,93.328,19.197,149.804,20.948c0.058,0.002,0.116,0.004,0.175,0.006c0.189,0.006,0.378,0.013,0.568,0.018
	l-32.596,40.284l-20.346-17.47c-3.748-3.218-9.281-3.217-13.029,0l-71.12,61.064c-1.864-0.568-3.69-1.144-5.463-1.729
	c-5.246-1.73-10.9,1.118-12.63,6.363c-1.73,5.245,1.118,10.899,6.362,12.63c3.62,1.194,7.423,2.354,11.369,3.477
	c0.005,0.001,0.01,0.004,0.014,0.005c0.06,0.017,0.121,0.033,0.181,0.05c1.164,0.33,2.34,0.657,3.53,0.981
	c0.157,0.043,0.312,0.085,0.469,0.128c1.136,0.307,2.283,0.611,3.441,0.911c0.204,0.053,0.407,0.107,0.612,0.16
	c1.116,0.288,2.244,0.572,3.38,0.853c0.235,0.058,0.467,0.118,0.702,0.175c1.34,0.329,2.689,0.655,4.055,0.975
	c1.568,0.368,3.158,0.727,4.757,1.082c0.462,0.103,0.928,0.204,1.393,0.305c1.227,0.268,2.463,0.532,3.708,0.793
	c0.439,0.092,0.876,0.185,1.318,0.276c1.643,0.339,3.297,0.672,4.968,0.998c0.207,0.04,0.418,0.079,0.625,0.119
	c1.48,0.286,2.972,0.567,4.473,0.844c0.497,0.092,0.996,0.182,1.496,0.272c1.354,0.245,2.715,0.486,4.085,0.722
	c0.4,0.069,0.797,0.14,1.199,0.208c1.735,0.296,3.483,0.585,5.244,0.867c0.379,0.061,0.762,0.119,1.143,0.18
	c1.421,0.225,2.851,0.445,4.288,0.662c0.533,0.08,1.066,0.16,1.6,0.239c1.54,0.227,3.089,0.45,4.646,0.667
	c0.223,0.031,0.442,0.065,0.665,0.096c0.044,0.007,0.088,0.013,0.133,0.02c0.087,0.012,0.176,0.023,0.263,0.035
	c1.657,0.228,3.324,0.45,4.999,0.667c0.134,0.017,0.266,0.036,0.4,0.053c0.022,0.003,0.046,0.006,0.068,0.009
	c0.001,0,0.001,0,0.002,0c0.003,0,0.005,0,0.007,0c0.467,0.06,0.941,0.117,1.41,0.176c1.287,0.163,2.578,0.322,3.875,0.478
	c0.531,0.064,1.062,0.128,1.595,0.19c23.805,2.804,49.234,4.48,75.184,4.913c0.373,0.006,0.747,0.012,1.12,0.017
	c1.635,0.025,3.272,0.045,4.911,0.06c0.498,0.005,0.995,0.01,1.493,0.014C252.002,476.99,253.999,477,256,477
	c3.711,0,7.414-0.028,11.109-0.079c0.483-0.007,0.966-0.015,1.449-0.022c3.178-0.049,6.349-0.117,9.51-0.203
	c0.761-0.021,1.522-0.041,2.283-0.064c2.943-0.089,5.876-0.195,8.8-0.316c1.188-0.049,2.373-0.101,3.557-0.155
	c2.733-0.125,5.458-0.261,8.17-0.414c1.102-0.062,2.199-0.129,3.298-0.195c2.563-0.155,5.115-0.323,7.655-0.502
	c1.015-0.072,2.03-0.143,3.042-0.219c2.918-0.218,5.819-0.454,8.703-0.704c0.769-0.067,1.537-0.134,2.303-0.203
	c3.129-0.282,6.237-0.582,9.32-0.901c0.337-0.035,0.676-0.068,1.013-0.104c0.044-0.005,0.089-0.009,0.133-0.014
	c0.254-0.027,0.503-0.056,0.756-0.083c1.505-0.16,3.005-0.325,4.498-0.493c0.27-0.031,0.545-0.059,0.815-0.089
	c0.141-0.016,0.277-0.033,0.418-0.049c0.741-0.085,1.479-0.173,2.217-0.26c0.563-0.067,1.137-0.132,1.693-0.199
	c0.008-0.001,0.016-0.002,0.024-0.003c0.001,0,0.001,0,0.002,0c0.01-0.001,0.02-0.003,0.03-0.004
	c0.128-0.015,0.252-0.033,0.38-0.048c2.181-0.265,4.346-0.541,6.498-0.825c0.526-0.069,1.049-0.14,1.573-0.211
	c2.094-0.282,4.178-0.57,6.242-0.87c0.412-0.06,0.818-0.123,1.229-0.183c1.72-0.254,3.429-0.514,5.127-0.781
	c0.631-0.099,1.264-0.197,1.892-0.297c1.872-0.3,3.729-0.608,5.572-0.923c0.658-0.112,1.312-0.227,1.966-0.341
	c1.785-0.312,3.56-0.629,5.316-0.955c0.464-0.086,0.923-0.174,1.384-0.261c1.694-0.319,3.372-0.646,5.037-0.979
	c0.493-0.099,0.988-0.196,1.478-0.296c1.879-0.381,3.737-0.772,5.578-1.17c0.413-0.089,0.823-0.18,1.233-0.27
	c1.94-0.426,3.865-0.857,5.759-1.301c1.605-0.376,3.161-0.754,4.695-1.134c0.319-0.079,0.634-0.159,0.951-0.238
	c1.414-0.354,2.799-0.708,4.153-1.063c0.116-0.03,0.232-0.06,0.348-0.091c34.78-9.165,49.676-18.754,54.677-22.682
	c4.344-3.412,5.099-9.698,1.688-14.041c-3.411-4.343-9.698-5.099-14.041-1.688c-1.883,1.479-10.752,7.77-32.994,14.886
	l-74.05-73.381c-3.898-3.862-10.18-3.862-14.078,0l-31.226,30.945l-32.453-40.107c0.965-0.016,1.93-0.032,2.893-0.052
	c0.074-0.001,0.148-0.002,0.221-0.004c2.915-0.06,5.819-0.137,8.714-0.226c0.06-0.002,0.12-0.004,0.18-0.006
	c56.474-1.752,108.901-9.032,149.801-20.948c8.759-2.552,16.802-5.271,24.15-8.14c0.003-0.001,0.006-0.002,0.01-0.003
	c0.027-0.01,0.053-0.021,0.08-0.032c3.095-1.21,6.066-2.447,8.907-3.71c0.293-0.13,0.592-0.258,0.882-0.388
	c0.402-0.181,0.793-0.364,1.189-0.546c0.867-0.397,1.724-0.796,2.567-1.197c0.141-0.068,0.281-0.136,0.421-0.203
	c8.217-3.946,15.21-8.109,20.965-12.481V430.42C491.709,456.132,402.037,492,256,492z"/>
<g>
</g>
<g>
</g>
<g>
</g>
<g>
</g>
<g>
</g>
<g>
</g>
<g>
</g>
<g>
</g>
<g>
</g>
<g>
</g>
<g>
</g>
<g>
</g>
<g>
</g>
<g>
</g>
<g>
</g>
</svg>
