<?xml version="1.0" encoding="iso-8859-1"?>
<!-- Generator: Adobe Illustrator 19.0.0, SVG Export Plug-In . SVG Version: 6.00 Build 0)  -->
<svg version="1.1" id="Capa_1" xmlns="http://www.w3.org/2000/svg" xmlns:xlink="http://www.w3.org/1999/xlink" x="0px" y="0px"
	 viewBox="0 0 512 512" style="enable-background:new 0 0 512 512;" xml:space="preserve">
<path style="fill:#4B4B5B;" d="M93.796,501.582l20.032-110.899h284.343l20.032,110.9c0.98,5.426-3.19,10.417-8.704,10.417H102.5
	C96.985,512,92.815,507.01,93.796,501.582z"/>
<path style="fill:#F6B545;" d="M235.618,480.323l7.432-46.962c0.329-2.079,2.121-3.61,4.226-3.61h17.448
	c2.105,0,3.897,1.531,4.226,3.61l7.432,46.962c0.411,2.597-1.596,4.946-4.226,4.946h-32.312
	C237.214,485.269,235.207,482.92,235.618,480.323z"/>
<path style="fill:#4B4B5B;" d="M162.671,120.289L183.672,4.025C184.092,1.695,186.121,0,188.49,0h135.02
	c2.368,0,4.397,1.695,4.818,4.025l21.001,116.264H162.671z"/>
<path style="fill:#F6B545;" d="M237.922,76.634l5.521-34.89c0.217-1.372,1.399-2.381,2.787-2.381h13.369
	c1.388,0,2.57,1.01,2.787,2.381l5.521,34.89c0.271,1.713-1.053,3.263-2.787,3.263h-24.41
	C238.975,79.898,237.651,78.347,237.922,76.634z"/>
<path style="fill:#C7C5CC;" d="M19.399,391.711c-10.414,0-18.885-8.472-18.885-18.884V138.145c0-10.413,8.472-18.884,18.885-18.884
	h473.202c10.413,0,18.885,8.472,18.885,18.884v234.681c0,10.413-8.472,18.884-18.885,18.884L19.399,391.711L19.399,391.711z"/>
<path style="fill:#B2AFBA;" d="M303.209,323.341c-112.71,0-204.08-91.369-204.08-204.08l0,0h-79.73
	c-10.43,0-18.885,8.455-18.885,18.885v234.68c0,10.429,8.455,18.884,18.885,18.884h473.202c10.43,0,18.885-8.455,18.885-18.885
	v-49.484H303.209z"/>
<path style="fill:#8F8C9B;" d="M474.987,291.984c-7.087,0-12.851-5.765-12.851-12.851v-43.181c0-7.087,5.765-12.851,12.851-12.851
	c7.087,0,12.851,5.765,12.851,12.851v43.181C487.839,286.219,482.074,291.984,474.987,291.984z"/>
<path style="fill:#7FE4F4;" d="M66.313,358.503V152.469c0-5.849,4.742-10.59,10.59-10.59h352.026c5.849,0,10.59,4.742,10.59,10.59
	v206.034c0,5.849-4.742,10.59-10.59,10.59H76.902C71.054,369.092,66.313,364.351,66.313,358.503z"/>
<polygon style="fill:#4B4B5B;" points="91.379,369.092 140.271,141.88 371.728,141.88 420.62,369.092 "/>
<path style="fill:#F6B545;" d="M275.513,321.714l-5.685-36.503l-1.722-9.021l-25.141,0.726l-0.794,8.295l-5.685,36.503
	c-0.596,3.827,2.363,7.282,6.236,7.282h26.556C273.15,328.996,276.109,325.54,275.513,321.714z"/>
<path style="fill:#3F3F4C;" d="M255.997,295.876c-4.971,0-9.772-0.802-13.518-2.258c-14.946-5.81-49.708-20.664-49.708-33.095
	c0-15.533,28.365-28.17,63.229-28.17s63.229,12.637,63.229,28.17c0,12.414-34.762,27.279-49.707,33.093
	C265.773,295.074,260.97,295.876,255.997,295.876z"/>
<path style="fill:#ED2E4E;" d="M250.59,293.743c-7.595-6.626-45.482-40.901-45.482-64.988c0-28.061,22.83-50.892,50.892-50.892
	c28.061,0,50.892,22.83,50.892,50.892c0,24.053-37.889,58.354-45.485,64.986l0,0C258.309,296.446,253.689,296.447,250.59,293.743
	L250.59,293.743z"/>
<path style="fill:#D60B37;" d="M242.12,215.039c0-14.629,6.213-27.826,16.128-37.118c-0.746-0.033-1.495-0.058-2.248-0.058
	c-28.061,0-50.892,22.83-50.892,50.892c0,24.087,37.887,58.362,45.482,64.988c3.099,2.704,7.719,2.703,10.817-0.002l0,0
	c3.109-2.714,11.293-10.067,19.877-19.453C268.022,261.835,242.12,234.96,242.12,215.039z"/>
<path style="fill:#FFFFFF;" d="M255.999,246.747c-9.92,0-17.992-8.072-17.992-17.992c0-9.92,8.072-17.992,17.992-17.992
	c9.92,0,17.992,8.072,17.992,17.992C273.991,238.675,265.92,246.747,255.999,246.747z"/>
<g>
	<path style="fill:#8F8C9B;" d="M37.012,313.574c-4.258,0-7.711-3.451-7.711-7.711v-65.799c0-4.259,3.452-7.711,7.711-7.711
		s7.711,3.451,7.711,7.711v65.799C44.722,310.123,41.27,313.574,37.012,313.574z"/>
	<path style="fill:#8F8C9B;" d="M37.067,227.213c-4.234,0-7.68-3.416-7.71-7.657l-0.113-16.45c-0.029-4.258,3.399-7.734,7.657-7.764
		c0.019,0,0.037,0,0.054,0c4.234,0,7.68,3.416,7.71,7.657l0.113,16.45c0.029,4.258-3.399,7.734-7.657,7.764
		C37.103,227.213,37.085,227.213,37.067,227.213z"/>
</g>
<g>
</g>
<g>
</g>
<g>
</g>
<g>
</g>
<g>
</g>
<g>
</g>
<g>
</g>
<g>
</g>
<g>
</g>
<g>
</g>
<g>
</g>
<g>
</g>
<g>
</g>
<g>
</g>
<g>
</g>
</svg>
