<svg height="511pt" viewBox="1 -77 511.99958 511" width="511pt" xmlns="http://www.w3.org/2000/svg" xmlns:xlink="http://www.w3.org/1999/xlink"><linearGradient id="a" gradientTransform="matrix(.426212 0 0 -.426212 0 434.587878)" gradientUnits="userSpaceOnUse" x1="183.2487" x2="1028.7628" y1="139.8854" y2="985.3781"><stop offset="0" stop-color="#41dfd0"/><stop offset="1" stop-color="#ee83ef"/></linearGradient><path d="m9.144531 302.21875h46.445313c4.539062 31.460938 31.480468 54.820312 63.265625 54.855469h75.054687c18.773438.050781 36.789063-7.410157 50.03125-20.714844l6.699219-6.710937h9.820313c13.382812 17.320312 34.046874 27.453124 55.9375 27.425781h76.746093c31.785157-.035157 58.726563-23.394531 63.265625-54.855469h46.445313c5.050781 0 9.144531-4.09375 9.144531-9.144531v-73.140625c0-5.050782-4.09375-9.144532-9.144531-9.144532h-45.710938v-9.140624c0-.066407 0-.109376 0-.175782-.027343-1.058594-.234375-2.105468-.625-3.089844-.097656-.257812-.238281-.492187-.355469-.742187-.148437-.367187-.320312-.726563-.519531-1.070313l-36.574219-54.855468c-1.6875-2.625-4.632812-4.171875-7.753906-4.070313l-100.570312 1.144531c-1.878906.023438-3.703125.621094-5.230469 1.71875l-34.175781 24.566407h-30.582032l-34.128906-25.597657c-1.582031-1.1875-3.507812-1.832031-5.484375-1.832031h-100.574219c-3.054687 0-5.910156 1.527344-7.605468 4.070313l-36.570313 54.855468c-.195312.347657-.371093.703126-.523437 1.070313-.117188.257813-.253906.476563-.355469.742187-.386719.984376-.597656 2.03125-.621094 3.089844v.175782 9.140624h-45.75c-5.050781 0-9.144531 4.09375-9.144531 9.144532v73.140625c0 5.050781 4.09375 9.144531 9.144531 9.144531zm384 36.570312h-76.746093c-17.546876.019532-33.933594-8.75-43.648438-23.359374-1.695312-2.542969-4.550781-4.070313-7.605469-4.070313h-18.289062c-2.421875 0-4.75.964844-6.460938 2.679687l-9.382812 9.390626c-9.820313 9.863281-23.179688 15.394531-37.101563 15.359374h-75.054687c-25.234375-.03125-45.683594-20.480468-45.710938-45.714843v-82.285157h18.285157v73.144532c0 20.195312 16.371093 36.570312 36.570312 36.570312h67.136719c12.132812.035156 23.773437-4.785156 32.328125-13.386718l14.035156-14.042969h29l14.035156 14.042969c8.558594 8.601562 20.199219 13.421874 32.328125 13.386718h67.136719c20.199219 0 36.570312-16.375 36.570312-36.570312v-73.144532h18.285157v82.285157c-.027344 25.234375-20.476563 45.683593-45.710938 45.714843zm-283.429687-128h292.570312v73.144532c0 10.097656-8.1875 18.285156-18.285156 18.285156h-67.136719c-7.277343.015625-14.261719-2.871094-19.402343-8.027344l-16.710938-16.722656c-1.714844-1.714844-4.039062-2.679688-6.464844-2.679688h-36.570312c-2.425782 0-4.75.964844-6.464844 2.679688l-16.710938 16.722656c-5.136718 5.15625-12.125 8.046875-19.402343 8.027344h-67.136719c-10.097656 0-18.285156-8.1875-18.285156-18.285156zm384 18.285157v54.859375h-36.570313v-54.859375zm-388.253906-73.140625h92.636718l34.128906 25.597656c1.585938 1.1875 3.507813 1.828125 5.488282 1.828125h36.570312c1.917969.003906 3.785156-.597656 5.339844-1.71875l34.222656-24.59375 92.726563-1.058594 24.347656 36.515625h-349.84375zm-87.175782 73.140625h36.570313v54.859375h-36.570313zm50.148438-184.164063 45.714844 27.429688c4.328124 2.597656 9.945312 1.199218 12.546874-3.128906.851563-1.421876 1.304688-3.050782 1.304688-4.707032v-54.855468c0-5.050782-4.09375-9.144532-9.144531-9.144532-1.660157.003906-3.285157.453125-4.707031 1.308594l-45.714844 27.425781c-4.328125 2.601563-5.726563 8.222657-3.125 12.546875.773437 1.28125 1.84375 2.355469 3.125 3.125zm41.28125-19.117187v22.5625l-18.808594-11.28125zm36.570312 38.710937v-54.855468c0-5.050782 4.09375-9.144532 9.144532-9.144532 5.046874 0 9.140624 4.09375 9.140624 9.144532v54.855468c0 5.050782-4.09375 9.144532-9.140624 9.144532-5.050782 0-9.144532-4.09375-9.144532-9.144532zm59.492188 7.953125c2.871094 1.625 6.390625 1.582031 9.214844-.117187l31.863281-19.117188v11.28125c0 5.050782 4.09375 9.140625 9.144531 9.140625h54.855469c5.050781 0 9.144531-4.089843 9.144531-9.140625v-54.855468c0-5.050782-4.09375-9.144532-9.144531-9.144532h-54.855469c-5.050781 0-9.144531 4.09375-9.144531 9.144532v11.28125l-31.859375-19.117188c-4.328125-2.601562-9.945313-1.199219-12.546875 3.128906-.855469 1.417969-1.304688 3.046875-1.304688 4.703125v54.859375c0 3.292969 1.769531 6.332032 4.632813 7.953125zm59.367187-53.667969h36.570313v36.570313h-36.570313zm-45.714843 7.003907 18.804687 11.28125-18.804687 11.28125zm137.617187 41.601562c-1.597656-4.792969.988281-9.96875 5.777344-11.566406l21.175781-7.058594v-29.980469c0-3.9375 2.519531-7.433593 6.253906-8.675781l27.429688-9.144531c4.796875-1.59375 9.976562 1 11.574218 5.796875 1.59375 4.796875-1 9.980469-5.796874 11.574219l-21.175782 7.042968v29.976563c0 3.9375-2.519531 7.433594-6.253906 8.679687l-27.425781 9.140626c-4.792969 1.589843-9.964844-1-11.558594-5.785157zm-91.902344 42.824219h-18.289062v-18.285156h18.289062zm-18.289062 18.285156h18.289062v18.285156h-18.289062zm0 0" fill="url(#a)"/></svg>