<svg id="Layer_1" data-name="Layer 1" xmlns="http://www.w3.org/2000/svg" viewBox="0 0 100.6 114.93"><defs><style>.cls-1{fill:#007dc4;}</style></defs><title>ploud_icon</title><polygon class="cls-1" points="86.6 79.04 52.44 98.76 52.44 114.93 100.6 87.12 100.6 31.04 86.6 38.71 86.6 79.04"/><polygon class="cls-1" points="50.3 16.16 83.68 35.44 98.04 27.56 50.3 0 0.82 28.57 16.45 35.71 50.3 16.16"/><polygon class="cls-1" points="14 79.04 14 39.24 0 32.84 0 87.12 48.16 114.93 48.16 98.76 14 79.04"/><path class="cls-1" d="M74.49,57.71c-1.9,0-4.48,0-4.48,0V56.92s0-1.05-.11-1.56a10.78,10.78,0,0,0-21.34,0H47.49c-3.78,0-7.3,2.69-6.77,10.28,0.16,2.28,2.37,5.18,6.77,5.18H74.22c3.78,0,6.87-2.77,6.87-6.15s-2.19-6.85-6.6-6.94" transform="translate(-10.58 -2.04)"/></svg>