<svg width="90" height="100" xmlns="http://www.w3.org/2000/svg">
 <!-- Created with Method Draw - http://github.com/duopixel/Method-Draw/ -->

 <g>
  <title>background</title>
  <rect fill="none" id="canvas_background" height="52" width="56" y="-1" x="-1"/>
  <g display="none" overflow="visible" y="0" x="0" height="100%" width="100%" id="canvasGrid">
   <rect fill="url(#gridpattern)" stroke-width="0" y="0" x="0" height="100%" width="100%"/>
  </g>
 </g>
 <g>
  <title>Layer 1</title>
  <defs>
   <style>.cls-1{fill:#fff;}</style>
  </defs>
  <defs>
   <style>.cls-1{fill:#fff;}</style>
  </defs>
  <g stroke="null" id="svg_36">
   <polygon stroke="null" id="svg_32" points="75.88114929199219,69.34422302246094 46.34373474121094,86.39566040039062 46.34373474121094,100.37751770019531 87.98667907714844,76.33078002929688 87.98667907714844,27.83966064453125 75.88114929199219,34.47169494628906 75.88114929199219,69.34422302246094 " class="cls-1"/>
   <polygon stroke="null" id="svg_33" points="44.49324035644531,14.973221778869629 73.35624694824219,31.644195556640625 85.77314758300781,24.830520629882812 44.49324035644531,1 1.709014892578125,25.703857421875 15.224029541015625,31.877716064453125 44.49324035644531,14.973221778869629 " class="cls-1"/>
   <polygon stroke="null" id="svg_34" points="13.10552978515625,69.34422302246094 13.10552978515625,34.92999267578125 1,29.396072387695312 1,76.33078002929688 42.64295959472656,100.37751770019531 42.64295959472656,86.39566040039062 13.10552978515625,69.34422302246094 " class="cls-1"/>
   <path stroke="null" id="svg_35" d="m56.261618,49.136688c-1.642889,0 -3.87376,0 -3.87376,0l0,-0.683096s0,-0.907913 -0.095115,-1.348899a9.321235,9.321235 0 0 0 -18.452241,0l-0.925206,0c-3.268485,0 -6.312154,2.325985 -5.853874,8.888896c0.138349,1.971467 2.049288,4.479035 5.853874,4.479035l23.112858,0c3.268485,0 5.940342,-2.39516 5.940342,-5.317773s-1.893646,-5.923048 -5.706879,-6.000869" class="cls-1"/>
  </g>
 </g>
</svg>