<?xml version="1.0" encoding="utf-8"?>
<!-- Generator: Adobe Illustrator 19.2.0, SVG Export Plug-In . SVG Version: 6.00 Build 0)  -->
<svg version="1.1" id="Layer_1" xmlns="http://www.w3.org/2000/svg" xmlns:xlink="http://www.w3.org/1999/xlink" x="0px" y="0px"
	 viewBox="0 0 420 36" style="enable-background:new 0 0 420 36;" xml:space="preserve">
<defs>
	<g transform="translate(0 0)">
		<g id="service-vr">
			<g>
				<g>
					<g>
						<path d="M38.8,8.3h-2.5V4.2C36.3,3.6,35.7,3,35,3H7C6.3,3,5.7,3.6,5.7,4.2v4.1H3.2C2.6,8.3,2,8.9,2,9.6v20.6
							c0,0.7,0.6,1.2,1.2,1.2h13.9c0.6,0,1.2-0.5,1.2-1.1l0.7-5.6c0.1-1,1-1.7,1.9-1.7c1,0,1.8,0.7,1.9,1.7l0.7,5.6
							c0.1,0.6,0.6,1.1,1.2,1.1h13.9c0.7,0,1.2-0.6,1.2-1.2V9.6C40,8.9,39.4,8.3,38.8,8.3z M8.2,5.5h25.6v2.8H8.2V5.5z M37.5,28.9
							H26l-0.6-4.5c-0.3-2.2-2.2-3.9-4.4-3.9s-4.1,1.7-4.4,3.9L16,28.9H4.5V10.8c1.8,0,31.2,0,33,0L37.5,28.9L37.5,28.9z"/>
					</g>
				</g>
				<g>
					<g>
						<path d="M11.7,12.1c-3.3,0-6,2.7-6,6s2.7,6,6,6s6-2.7,6-6S15,12.1,11.7,12.1z M11.7,21.6c-1.9,0-3.5-1.6-3.5-3.5
							s1.6-3.5,3.5-3.5s3.5,1.6,3.5,3.5S13.6,21.6,11.7,21.6z"/>
					</g>
				</g>
				<g>
					<g>
						<path d="M30.3,12.1c-3.3,0-6,2.7-6,6s2.7,6,6,6s6-2.7,6-6S33.6,12.1,30.3,12.1z M30.3,21.6c-1.9,0-3.5-1.6-3.5-3.5
							s1.6-3.5,3.5-3.5s3.5,1.6,3.5,3.5S32.2,21.6,30.3,21.6z"/>
					</g>
				</g>
			</g>
		</g>
	</g>
	<g transform="translate(54 0)">
		<g id="service-ux">
			<path d="M54,36V0h44v36H54z M96,2H56v32h40V2z M56,20v-2v-2l2,2L56,20z M69,10l7,6.6l7-6.6h3l-8.5,8l8.5,8h-3l-7-6.6L69,26h-3
				l8.5-8L66,10H69z"/>
		</g>
	</g>
	<g transform="translate(114 0)">
		<g id="service-startup">
			<path d="M114,36V0h44v36H114z M156,2h-40v32h18l2-2l2,2h18V2z M124,17h24v2h-24V17z"/>
		</g>
	</g>
	<g transform="translate(174 0)">
		<g id="service-ios">
			<path d="M174,36V0h22v36H174z M194,2h-18v32h7l2-2l2,2h7V2z"/>
		</g>
	</g>
	<g transform="translate(212 0)">
		<g id="service-design">
			<path d="M212,36V0h44v36L212,36z M249,34l-13-12l-13,12H249z M254,2h-40v32l0,0l0,0h6l4.1-3.9L220,26l-6,6v-3l6-6l5.7,5.7L236,19
				l16,15h2V2z M243,2h2h2l-2,2L243,2z"/>
		</g>
	</g>
	<g transform="translate(272 0)">
		<g id="service-consulting">
			<path d="M272,36V0h44v36H272z M314,2h-40v32h18l2-2l2,2h18V2z M288,13h12v10h-12V13z M290,21h8v-6h-8V21z"/>
		</g>
	</g>
	<g transform="translate(332 0)">
		<g id="service-backend">
			<path d="M332,36V0h44v36H332z M374,20l-2-2l2-2V2h-40v32h40V20z M334,20v-2v-2l2,2L334,20z M360,12l-10,12h-3l10-12
				C357,12,360,12,360,12z"/>
		</g>
	</g>
	<g transform="translate(392 0)">
		<g id="service-android">
			<path d="M392,36V0h28v36H392z M418,2h-24v32h10l2-2l2,2h10V2z"/>
		</g>
	</g>
</defs>
<g fill="#000000">
	<use xlink:href="#service-web" transform="translate(0 0)"></use>
	<use xlink:href="#service-ux" transform="translate(54 0)"></use>
	<use xlink:href="#service-startup" transform="translate(114 0)"></use>
	<use xlink:href="#service-ios" transform="translate(174 0)"></use>
	<use xlink:href="#service-design" transform="translate(212 0)"></use>
	<use xlink:href="#service-consulting" transform="translate(272 0)"></use>
	<use xlink:href="#service-backend" transform="translate(332 0)"></use>
	<use xlink:href="#service-android" transform="translate(392 0)"></use>
</g>
</svg>
