<svg version="1.1" xmlns="http://www.w3.org/2000/svg" xmlns:xlink="http://www.w3.org/1999/xlink" width="420" height="36" viewBox="0 0 420 36">
<defs>
<g id="service-web">
	<path class="path1" d="M24 30.857c0 0 0 5.143 0 5.143s-10.286 0-10.286 0c0 0 0-5.143 0-5.143 0 0-13.714 0-13.714 0 0 0 0-30.857 0-30.857 0 0 37.714 0 37.714 0 0 0 0 30.857 0 30.857 0 0-13.714 0-13.714 0zM15.429 34.286c0 0 6.857 0 6.857 0s0-3.429 0-3.429c0 0-6.857 0-6.857 0 0 0 0 3.429 0 3.429zM36 1.714c0 0-34.286 0-34.286 0s0 27.429 0 27.429c0 0 12 0 12 0 0 0 10.286 0 10.286 0 0 0 12 0 12 0 0 0 0-27.429 0-27.429zM17.146 1.715c0 0 1.711 0 1.711 0s1.712 0 1.712 0c0 0-1.712 1.711-1.712 1.711 0 0-1.711-1.711-1.711-1.711z" />
</g>
<g id="service-ux">
	<path class="path1" d="M0 36c0 0 0-36 0-36s44 0 44 0c0 0 0 36 0 36 0 0-44 0-44 0zM42 2c0 0-40 0-40 0s0 32 0 32c0 0 40 0 40 0 0 0 0-32 0-32zM2 19.997c0 0 0-1.997 0-1.997s0-1.996 0-1.996c0 0 1.997 1.996 1.997 1.996 0 0-1.997 1.997-1.997 1.997zM15 10c0 0 7 6.589 7 6.589s7-6.589 7-6.589c0 0 3 0 3 0 0 0-8.5 8-8.5 8 0 0 8.5 8.001 8.5 8.001 0 0-3 0-3 0 0 0-7-6.589-7-6.589 0 0-7 6.589-7 6.589 0 0-3 0-3 0 0 0 8.5-8.001 8.5-8.001 0 0-8.5-8-8.5-8 0 0 3 0 3 0z" />
</g>
<g id="service-startup">
	<path class="path1" d="M0 36c0 0 0-36 0-36s44 0 44 0c0 0 0 36 0 36 0 0-44 0-44 0zM42 2c0 0-40 0-40 0s0 32 0 32c0 0 18.004 0 18.004 0 0 0 1.996-1.996 1.996-1.996 0 0 1.996 1.996 1.996 1.996 0 0 18.004 0 18.004 0 0 0 0-32 0-32zM10 17c0 0 24 0 24 0s0 2 0 2c0 0-24 0-24 0 0 0 0-2 0-2z" />
</g>
<g id="service-ios">
	<path class="path1" d="M0 36c0 0 0-36 0-36s22 0 22 0c0 0 0 36 0 36 0 0-22 0-22 0zM20 2c0 0-18 0-18 0s0 32 0 32c0 0 7.004 0 7.004 0 0 0 1.996-1.996 1.996-1.996 0 0 1.996 1.996 1.996 1.996 0 0 7.004 0 7.004 0 0 0 0-32 0-32z" />
</g>
<g id="service-design">
	<path class="path1" d="M0 36c0 0 0-35.999 0-35.999s44 0 44 0c0 0 0 36 0 36 0 0-44-0.001-44-0.001zM37 34c0 0-13-12-13-12s-13 12-13 12c0 0 26 0 26 0zM42 2c0 0-40 0-40 0s0 32 0 32c0 0 0 0 0 0 0 0 0 0 0 0 0 0 6 0 6 0 0 0 4.127-3.873 4.127-3.873 0 0-4.127-4.126-4.127-4.126 0 0-6 6-6 6 0 0 0-3 0-3 0 0 6-6.001 6-6.001 0 0 5.675 5.675 5.675 5.675 0 0 10.325-9.689 10.325-9.689 0 0 16 15.014 16 15.014 0 0 2 0 2 0 0 0 0-32 0-32zM31.004 2.001c0 0 1.996 0 1.996 0s1.997 0 1.997 0c0 0-1.997 1.996-1.997 1.996 0 0-1.996-1.996-1.996-1.996z" />
</g>
<g id="service-consulting">
	<path class="path1" d="M0 36c0 0 0-36 0-36s44 0 44 0c0 0 0 36 0 36 0 0-44 0-44 0zM42 2c0 0-40 0-40 0s0 32 0 32c0 0 18.004 0 18.004 0 0 0 1.996-1.996 1.996-1.996 0 0 1.996 1.996 1.996 1.996 0 0 18.004 0 18.004 0 0 0 0-32 0-32zM16 13c0 0 12 0 12 0s0 10 0 10c0 0-12 0-12 0 0 0 0-10 0-10zM18 21c0 0 8 0 8 0s0-6 0-6c0 0-8 0-8 0 0 0 0 6 0 6z" />
</g>
<g id="service-backend">
	<path class="path1" d="M0 36c0 0 0-36 0-36s44 0 44 0c0 0 0 36 0 36 0 0-44 0-44 0zM42 19.997c0 0-1.997-1.996-1.997-1.996s1.997-1.997 1.997-1.997c0 0 0-14.004 0-14.004 0 0-40 0-40 0 0 0 0 32 0 32 0 0 40 0 40 0 0 0 0-14.003 0-14.003zM2 19.997c0 0 0-1.996 0-1.996s0-1.997 0-1.997c0 0 1.997 1.997 1.997 1.997 0 0-1.997 1.996-1.997 1.996zM28 12c0 0-10 12.001-10 12.001s-3 0-3 0c0 0 10-12.001 10-12.001 0 0 3 0 3 0z" />
</g>
<g id="service-android">
	<path class="path1" d="M0 36c0 0 0-36 0-36s28 0 28 0c0 0 0 36 0 36 0 0-28 0-28 0zM26 2c0 0-24 0-24 0s0 32 0 32c0 0 10.004 0 10.004 0 0 0 1.996-1.996 1.996-1.996 0 0 1.996 1.996 1.996 1.996 0 0 10.004 0 10.004 0 0 0 0-32 0-32z" />
</g>
</defs>

<g fill="#000000">
	<use xlink:href="#service-web" transform="translate(0 0)"></use>
	<use xlink:href="#service-ux" transform="translate(54 0)"></use>
	<use xlink:href="#service-startup" transform="translate(114 0)"></use>
	<use xlink:href="#service-ios" transform="translate(174 0)"></use>
	<use xlink:href="#service-design" transform="translate(212 0)"></use>
	<use xlink:href="#service-consulting" transform="translate(272 0)"></use>
	<use xlink:href="#service-backend" transform="translate(332 0)"></use>
	<use xlink:href="#service-android" transform="translate(392 0)"></use>
</g>

</svg>
