<svg aria-hidden="true" style="position: absolute; width: 0; height: 0; overflow: hidden;" version="1.1" xmlns="http://www.w3.org/2000/svg" xmlns:xlink="http://www.w3.org/1999/xlink">
<defs>
<symbol id="ploud-responsive" viewBox="0 0 32 32">
<title>responsive</title>
<path fill="#c9f3ff" style="fill: var(--color1, #c9f3ff)" d="M21.832 15.886v2.917h-21.209v-2.917c0-0.446 0.362-0.807 0.807-0.807h19.594c0.445 0 0.807 0.361 0.807 0.807z"></path>
<path fill="#f7f7f7" style="fill: var(--color2, #f7f7f7)" d="M0.624 18.804h21.209v6.238h-21.209z"></path>
<path fill="#fade76" style="fill: var(--color3, #fade76)" d="M0.624 25.042h7.485v6.307h-7.485z"></path>
<path fill="#ffa3bf" style="fill: var(--color4, #ffa3bf)" d="M8.109 25.042h13.723v6.307h-13.723z"></path>
<path fill="#ffa3bf" style="fill: var(--color4, #ffa3bf)" d="M23.891 7.021h7.485v6.238h-7.485z"></path>
<path fill="#f7f7f7" style="fill: var(--color2, #f7f7f7)" d="M23.891 3.279h7.485v3.743h-7.485z"></path>
<path fill="#c9f3ff" style="fill: var(--color1, #c9f3ff)" d="M23.891 0.686h7.485v2.593h-7.485z"></path>
<path fill="#000" style="fill: var(--color5, #000)" d="M31.376 0.063h-7.485c-0.344 0-0.624 0.279-0.624 0.624v12.572c0 0.344 0.279 0.624 0.624 0.624h7.485c0.344 0 0.624-0.279 0.624-0.624v-12.572c0-0.344-0.279-0.624-0.624-0.624zM24.515 3.902h6.238v2.495h-6.238zM30.752 1.31v1.344h-6.238v-1.344zM24.515 12.635v-4.99h6.238v4.99z"></path>
<path fill="#000" style="fill: var(--color5, #000)" d="M2.564 17.21c0.016 0.038 0.035 0.074 0.057 0.107s0.049 0.066 0.077 0.095c0.029 0.029 0.061 0.055 0.095 0.078s0.071 0.042 0.108 0.057c0.038 0.016 0.077 0.027 0.117 0.035s0.081 0.012 0.122 0.012c0.041 0 0.082-0.004 0.122-0.012s0.079-0.019 0.117-0.035c0.037-0.016 0.074-0.035 0.107-0.057s0.066-0.049 0.095-0.078c0.029-0.029 0.055-0.061 0.078-0.095s0.042-0.070 0.057-0.107c0.016-0.038 0.028-0.077 0.036-0.117s0.012-0.081 0.012-0.122c0-0.041-0.004-0.082-0.012-0.122s-0.020-0.079-0.036-0.117c-0.016-0.038-0.035-0.074-0.057-0.108s-0.049-0.066-0.078-0.095c-0.029-0.029-0.061-0.055-0.095-0.077s-0.070-0.042-0.107-0.057c-0.038-0.016-0.077-0.028-0.117-0.036-0.080-0.016-0.163-0.016-0.244 0-0.040 0.008-0.079 0.020-0.117 0.036s-0.074 0.035-0.108 0.057c-0.034 0.022-0.066 0.049-0.095 0.077s-0.055 0.061-0.077 0.095c-0.022 0.034-0.042 0.070-0.057 0.108s-0.027 0.077-0.036 0.117c-0.008 0.040-0.012 0.081-0.012 0.122s0.004 0.082 0.012 0.122c0.008 0.040 0.020 0.079 0.036 0.117z"></path>
<path fill="#000" style="fill: var(--color5, #000)" d="M5.059 17.21c0.016 0.038 0.035 0.074 0.057 0.107s0.049 0.066 0.077 0.095c0.029 0.029 0.061 0.055 0.095 0.078s0.070 0.042 0.108 0.057c0.038 0.016 0.077 0.027 0.117 0.035s0.081 0.012 0.122 0.012c0.041 0 0.082-0.004 0.122-0.012s0.079-0.019 0.117-0.035 0.074-0.035 0.107-0.057c0.034-0.023 0.066-0.049 0.095-0.078s0.055-0.061 0.078-0.095c0.022-0.034 0.042-0.070 0.057-0.107s0.028-0.077 0.036-0.117 0.012-0.081 0.012-0.122c0-0.041-0.004-0.082-0.012-0.122s-0.020-0.079-0.036-0.117c-0.016-0.038-0.035-0.074-0.057-0.108s-0.049-0.066-0.078-0.095c-0.029-0.029-0.061-0.055-0.095-0.077s-0.070-0.042-0.107-0.057c-0.037-0.016-0.077-0.028-0.117-0.036-0.203-0.041-0.418 0.026-0.563 0.17-0.029 0.029-0.055 0.061-0.077 0.095s-0.042 0.070-0.057 0.108c-0.016 0.037-0.027 0.077-0.036 0.117s-0.012 0.081-0.012 0.122 0.004 0.082 0.012 0.122c0.008 0.040 0.020 0.079 0.036 0.117z"></path>
<path fill="#000" style="fill: var(--color5, #000)" d="M8.109 17.595h11.228c0.344 0 0.624-0.279 0.624-0.624s-0.279-0.624-0.624-0.624h-11.228c-0.344 0-0.624 0.28-0.624 0.624s0.279 0.624 0.624 0.624z"></path>
<path fill="#000" style="fill: var(--color5, #000)" d="M9.309 21.684c-0.015-0.038-0.035-0.074-0.057-0.107s-0.049-0.066-0.077-0.095c-0.029-0.029-0.061-0.055-0.095-0.078s-0.070-0.041-0.107-0.057c-0.038-0.016-0.077-0.028-0.117-0.036-0.080-0.016-0.163-0.016-0.243 0-0.040 0.008-0.079 0.020-0.117 0.036s-0.074 0.034-0.108 0.057c-0.034 0.023-0.066 0.049-0.095 0.078s-0.055 0.061-0.077 0.095c-0.022 0.034-0.042 0.070-0.057 0.107s-0.028 0.077-0.036 0.117c-0.008 0.041-0.012 0.082-0.012 0.122s0.004 0.082 0.012 0.122c0.008 0.040 0.021 0.079 0.036 0.116s0.035 0.074 0.057 0.108c0.022 0.034 0.049 0.066 0.077 0.095s0.061 0.055 0.095 0.077c0.034 0.022 0.070 0.042 0.108 0.057s0.077 0.027 0.117 0.035c0.040 0.008 0.081 0.012 0.122 0.012s0.082-0.004 0.122-0.012c0.040-0.008 0.079-0.020 0.117-0.035s0.073-0.035 0.107-0.057c0.034-0.022 0.066-0.049 0.095-0.077s0.055-0.061 0.077-0.095c0.022-0.034 0.042-0.070 0.057-0.108s0.028-0.077 0.036-0.116c0.008-0.040 0.012-0.081 0.012-0.122s-0.004-0.082-0.012-0.122c-0.008-0.039-0.020-0.079-0.036-0.117z"></path>
<path fill="#000" style="fill: var(--color5, #000)" d="M11.804 21.684c-0.015-0.038-0.035-0.074-0.057-0.107s-0.049-0.066-0.077-0.095c-0.029-0.029-0.061-0.055-0.095-0.078s-0.070-0.041-0.107-0.057c-0.038-0.016-0.077-0.028-0.117-0.036-0.080-0.016-0.163-0.016-0.243 0-0.040 0.008-0.079 0.020-0.117 0.036s-0.074 0.034-0.108 0.057c-0.034 0.023-0.066 0.049-0.095 0.078s-0.055 0.061-0.077 0.095c-0.022 0.034-0.042 0.070-0.057 0.107s-0.028 0.077-0.036 0.117c-0.008 0.041-0.012 0.082-0.012 0.122s0.004 0.082 0.012 0.122c0.008 0.040 0.020 0.079 0.036 0.116s0.035 0.074 0.057 0.108c0.022 0.034 0.049 0.066 0.077 0.095s0.061 0.055 0.095 0.077c0.034 0.022 0.070 0.042 0.108 0.057s0.077 0.027 0.117 0.035c0.040 0.008 0.081 0.012 0.122 0.012s0.082-0.004 0.122-0.012c0.040-0.008 0.079-0.020 0.117-0.035s0.074-0.035 0.108-0.057c0.034-0.022 0.066-0.049 0.095-0.077s0.055-0.061 0.077-0.095c0.022-0.034 0.042-0.070 0.057-0.108s0.028-0.077 0.036-0.116c0.008-0.040 0.012-0.081 0.012-0.122s-0.004-0.082-0.012-0.122c-0.008-0.039-0.020-0.079-0.036-0.117z"></path>
<path fill="#000" style="fill: var(--color5, #000)" d="M14.299 21.684c-0.015-0.038-0.034-0.074-0.057-0.107s-0.049-0.066-0.077-0.095c-0.029-0.029-0.061-0.055-0.095-0.078s-0.070-0.041-0.108-0.057c-0.037-0.016-0.077-0.028-0.117-0.036-0.080-0.016-0.163-0.016-0.243 0-0.040 0.008-0.079 0.020-0.117 0.036s-0.074 0.034-0.107 0.057c-0.034 0.023-0.066 0.049-0.095 0.078s-0.055 0.061-0.077 0.095c-0.022 0.034-0.042 0.070-0.057 0.107s-0.028 0.077-0.036 0.117c-0.008 0.041-0.012 0.082-0.012 0.122s0.004 0.082 0.012 0.122c0.008 0.040 0.020 0.079 0.036 0.116s0.035 0.074 0.057 0.108c0.022 0.034 0.049 0.066 0.077 0.095s0.061 0.055 0.095 0.077c0.034 0.022 0.070 0.042 0.108 0.057s0.077 0.027 0.117 0.035 0.081 0.012 0.122 0.012c0.041 0 0.082-0.004 0.122-0.012s0.079-0.020 0.117-0.035c0.038-0.016 0.074-0.035 0.108-0.057s0.066-0.049 0.095-0.077c0.029-0.029 0.055-0.061 0.077-0.095s0.042-0.070 0.057-0.108c0.016-0.037 0.028-0.077 0.036-0.116s0.012-0.081 0.012-0.122c0-0.041-0.004-0.082-0.012-0.122-0.008-0.039-0.021-0.079-0.036-0.117z"></path>
<path fill="#000" style="fill: var(--color5, #000)" d="M19.337 26.352h-1.618c-0.344 0-0.624 0.279-0.624 0.624s0.279 0.624 0.624 0.624h1.618c0.344 0 0.624-0.279 0.624-0.624s-0.279-0.624-0.624-0.624z"></path>
<path fill="#000" style="fill: var(--color5, #000)" d="M11.103 27.599h1.626c0.344 0 0.624-0.279 0.624-0.624s-0.279-0.624-0.624-0.624h-1.626c-0.344 0-0.624 0.279-0.624 0.624s0.279 0.624 0.624 0.624z"></path>
<path fill="#000" style="fill: var(--color5, #000)" d="M19.227 28.847h-8.124c-0.344 0-0.624 0.279-0.624 0.624s0.279 0.624 0.624 0.624h8.124c0.344 0 0.624-0.279 0.624-0.624s-0.279-0.624-0.624-0.624z"></path>
<path fill="#000" style="fill: var(--color5, #000)" d="M19.778 21.447l-1.222-1.222c-0.244-0.244-0.639-0.244-0.882 0s-0.244 0.638 0 0.882l0.782 0.782-0.807 0.806c-0.243 0.244-0.243 0.639 0 0.882 0.122 0.122 0.282 0.183 0.441 0.183s0.319-0.061 0.441-0.183l1.248-1.248c0.244-0.244 0.244-0.639 0-0.882z"></path>
<path fill="#000" style="fill: var(--color5, #000)" d="M8.85 12.323c0.113 0.157 0.298 0.261 0.506 0.261 0.002 0 0.004-0 0.006-0s0.004 0 0.007 0c0.159 0 0.319-0.061 0.441-0.183l1.222-1.222c0.244-0.244 0.244-0.639 0-0.882s-0.638-0.243-0.882 0l-0.17 0.17v-3.475c0-1.704 1.386-3.090 3.090-3.090h4.749l-0.17 0.17c-0.244 0.244-0.244 0.638 0 0.882 0.122 0.122 0.281 0.183 0.441 0.183s0.319-0.061 0.441-0.183l1.17-1.169c0.157-0.113 0.261-0.298 0.261-0.507 0-0.002-0-0.004-0-0.006 0.002-0.162-0.059-0.324-0.182-0.448l-1.222-1.222c-0.244-0.244-0.639-0.244-0.882 0s-0.244 0.638 0 0.882l0.17 0.17h-4.773c-2.392 0-4.337 1.946-4.337 4.337v3.45l-0.17-0.17c-0.244-0.244-0.638-0.244-0.882 0s-0.244 0.638 0 0.882z"></path>
<path fill="#000" style="fill: var(--color5, #000)" d="M4.808 20.224c-0.244-0.244-0.639-0.244-0.882 0l-1.248 1.248c-0.244 0.243-0.244 0.638 0 0.882l1.222 1.223c0.122 0.122 0.282 0.183 0.441 0.183s0.319-0.061 0.441-0.183c0.243-0.244 0.243-0.639 0-0.882l-0.782-0.781 0.806-0.807c0.244-0.243 0.244-0.638 0-0.882z"></path>
<path fill="#000" style="fill: var(--color5, #000)" d="M29.505 8.643h-3.743c-0.344 0-0.624 0.279-0.624 0.624s0.279 0.624 0.624 0.624h3.743c0.344 0 0.624-0.279 0.624-0.624s-0.279-0.624-0.624-0.624z"></path>
<path fill="#000" style="fill: var(--color5, #000)" d="M29.505 10.496h-3.743c-0.344 0-0.624 0.279-0.624 0.624s0.279 0.624 0.624 0.624h3.743c0.344 0 0.624-0.28 0.624-0.624s-0.279-0.624-0.624-0.624z"></path>
<path fill="#000" style="fill: var(--color5, #000)" d="M26.338 4.904c-0.016-0.037-0.034-0.074-0.057-0.107s-0.049-0.066-0.077-0.095c-0.029-0.029-0.061-0.055-0.095-0.077s-0.070-0.042-0.107-0.057c-0.038-0.016-0.077-0.028-0.117-0.035-0.080-0.016-0.163-0.016-0.243 0-0.040 0.007-0.079 0.020-0.117 0.035s-0.074 0.034-0.108 0.057c-0.034 0.022-0.066 0.049-0.095 0.077s-0.055 0.061-0.077 0.095c-0.022 0.033-0.042 0.070-0.057 0.107s-0.028 0.077-0.036 0.117c-0.008 0.040-0.012 0.081-0.012 0.122s0.004 0.082 0.012 0.122c0.008 0.040 0.020 0.079 0.036 0.117s0.035 0.074 0.057 0.108c0.022 0.034 0.049 0.066 0.077 0.095s0.060 0.055 0.095 0.077c0.034 0.022 0.070 0.042 0.108 0.057s0.077 0.027 0.117 0.035c0.040 0.008 0.081 0.013 0.122 0.013s0.082-0.004 0.122-0.013c0.040-0.008 0.079-0.020 0.117-0.035s0.074-0.035 0.107-0.057c0.034-0.022 0.066-0.049 0.095-0.077s0.055-0.061 0.077-0.095c0.023-0.034 0.042-0.070 0.057-0.108s0.028-0.077 0.036-0.117c0.008-0.040 0.012-0.081 0.012-0.122s-0.004-0.082-0.012-0.122c-0.008-0.040-0.020-0.079-0.036-0.117z"></path>
<path fill="#000" style="fill: var(--color5, #000)" d="M28.209 4.904c-0.016-0.037-0.035-0.074-0.057-0.107s-0.049-0.066-0.077-0.095c-0.029-0.029-0.061-0.055-0.095-0.077s-0.070-0.042-0.107-0.057c-0.038-0.016-0.077-0.028-0.117-0.035-0.080-0.016-0.163-0.017-0.243 0-0.040 0.007-0.079 0.020-0.117 0.035s-0.073 0.034-0.107 0.057c-0.034 0.022-0.066 0.049-0.095 0.077s-0.055 0.061-0.077 0.095c-0.023 0.033-0.042 0.070-0.057 0.107s-0.028 0.077-0.036 0.117c-0.008 0.040-0.012 0.081-0.012 0.122s0.004 0.082 0.012 0.122c0.008 0.040 0.021 0.079 0.036 0.117s0.034 0.074 0.057 0.108c0.022 0.034 0.049 0.066 0.077 0.095s0.060 0.055 0.095 0.077c0.034 0.022 0.070 0.042 0.107 0.057s0.077 0.027 0.117 0.035c0.040 0.008 0.081 0.013 0.122 0.013s0.082-0.004 0.122-0.013c0.040-0.008 0.079-0.020 0.117-0.035s0.074-0.035 0.108-0.057c0.034-0.022 0.066-0.049 0.095-0.077s0.055-0.061 0.077-0.095c0.022-0.034 0.042-0.070 0.057-0.108s0.028-0.077 0.036-0.117c0.008-0.040 0.012-0.081 0.012-0.122s-0.004-0.082-0.012-0.122c-0.008-0.040-0.020-0.079-0.036-0.117z"></path>
<path fill="#000" style="fill: var(--color5, #000)" d="M30.116 5.021c-0.008-0.040-0.020-0.079-0.036-0.117s-0.035-0.074-0.057-0.107c-0.022-0.034-0.049-0.066-0.077-0.095s-0.060-0.055-0.095-0.077c-0.034-0.023-0.070-0.042-0.108-0.057s-0.077-0.028-0.117-0.035c-0.080-0.016-0.163-0.016-0.243 0-0.040 0.007-0.079 0.020-0.117 0.035s-0.073 0.034-0.107 0.057c-0.034 0.022-0.066 0.049-0.095 0.077s-0.055 0.061-0.077 0.095c-0.022 0.033-0.042 0.070-0.057 0.107s-0.028 0.077-0.036 0.117c-0.008 0.040-0.012 0.081-0.012 0.122s0.004 0.082 0.012 0.122c0.008 0.040 0.020 0.079 0.036 0.117s0.035 0.074 0.057 0.108c0.022 0.034 0.049 0.066 0.077 0.095s0.060 0.055 0.095 0.077c0.034 0.022 0.070 0.042 0.107 0.057s0.077 0.027 0.117 0.035c0.040 0.008 0.081 0.013 0.122 0.013s0.082-0.004 0.122-0.013c0.040-0.008 0.079-0.020 0.117-0.035s0.074-0.035 0.108-0.057c0.034-0.022 0.066-0.049 0.095-0.077s0.055-0.061 0.077-0.095c0.022-0.034 0.042-0.070 0.057-0.108s0.028-0.077 0.036-0.117c0.008-0.040 0.012-0.081 0.012-0.122s-0.004-0.082-0.012-0.122z"></path>
<path fill="#000" style="fill: var(--color5, #000)" d="M21.025 14.455h-19.594c-0.789 0-1.431 0.642-1.431 1.431v15.462c0 0.344 0.279 0.624 0.624 0.624h21.209c0.344 0 0.624-0.279 0.624-0.624v-15.462c0-0.789-0.642-1.431-1.431-1.431zM1.248 26.383l2.127 1.792-2.127 1.772zM2.332 25.665h4.054l-2.038 1.698zM4.344 28.991l2.057 1.733h-4.137zM5.317 28.18l2.168-1.807v3.634zM8.106 24.418s0 0-0 0h-6.858v-4.99h19.961v4.99zM1.431 15.703h19.594c0.101 0 0.184 0.083 0.184 0.184v2.294h-19.961v-2.294c0-0.101 0.083-0.184 0.184-0.184zM8.733 30.725v-5.059h12.476v5.059z"></path>
<path fill="#000" style="fill: var(--color5, #000)" d="M14.627 27.214c0.016 0.038 0.035 0.074 0.057 0.108s0.049 0.066 0.077 0.095c0.116 0.116 0.277 0.183 0.441 0.183 0.041 0 0.082-0.004 0.122-0.012s0.079-0.020 0.117-0.036c0.038-0.015 0.074-0.035 0.108-0.057s0.066-0.049 0.095-0.077c0.116-0.116 0.183-0.277 0.183-0.441 0-0.041-0.004-0.082-0.012-0.122s-0.020-0.079-0.035-0.117c-0.016-0.038-0.035-0.074-0.058-0.108s-0.049-0.066-0.077-0.095c-0.029-0.029-0.061-0.055-0.095-0.078s-0.070-0.042-0.108-0.057c-0.037-0.016-0.077-0.028-0.117-0.036-0.080-0.016-0.163-0.016-0.244 0-0.040 0.008-0.079 0.020-0.116 0.036s-0.074 0.035-0.108 0.057c-0.034 0.023-0.066 0.049-0.095 0.078s-0.055 0.061-0.077 0.095c-0.022 0.034-0.042 0.070-0.057 0.108s-0.027 0.077-0.035 0.117-0.012 0.081-0.012 0.122c0 0.041 0.004 0.082 0.012 0.122s0.020 0.079 0.035 0.117z"></path>
</symbol>
<symbol id="ploud-video-service" viewBox="0 0 32 32">
<title>video-service</title>
<path d="M31.952 14.775h-0c-0.281-3.712-1.84-7.12-4.296-9.731-0.177-0.189-0.474-0.198-0.663-0.020s-0.198 0.474-0.020 0.663c0.211 0.224 0.411 0.45 0.596 0.672 0.006 0.007 0.011 0.013 0.017 0.020 1.42 1.709 2.463 3.726 3.022 5.947-0.807-1.006-1.952-1.926-3.404-2.717-1.028-0.56-2.171-1.033-3.4-1.414-0.765-2.469-2.106-5.181-4.132-6.805 0.527 0.133 1.070 0.3 1.583 0.492v0c1.373 0.503 2.821 1.295 4.136 2.344 0.202 0.162 0.497 0.129 0.659-0.074s0.129-0.497-0.074-0.659c-0.109-0.087-0.241-0.19-0.293-0.229-0.241-0.184-0.535-0.392-0.582-0.422l0.003 0.002c-1.645-1.142-3.501-1.968-5.453-2.424-0.003-0.001-0.007-0.002-0.010-0.002-0.006-0.002-0.012-0.003-0.019-0.004-0.14-0.032-0.289-0.065-0.455-0.098-0.005-0.001-0.009-0.002-0.013-0.003l-0.029-0.006c-0.135-0.027-0.276-0.053-0.422-0.077-0.004-0.001-0.008-0.001-0.012-0.002l-0.048-0.008c-0.143-0.024-0.291-0.046-0.436-0.067l-0.008-0.001c-0.008-0.001-0.015-0.002-0.023-0.003-0.016-0.002-0.032-0.004-0.049-0.007l-0.043-0.006c-0.006-0.001-0.012-0.002-0.019-0.002-0.151-0.020-0.302-0.037-0.451-0.052-0.002-0-0.004-0-0.006-0.001s-0.003-0-0.004-0c-0.016-0.002-0.031-0.003-0.047-0.004-0.011-0.001-0.022-0.002-0.033-0.003-0.003-0-0.006-0.001-0.009-0.001l-0.019-0.001c-0.122-0.011-0.244-0.021-0.366-0.030-0.004-0-0.009-0.001-0.015-0.001-3.28-0.233-6.666 0.544-9.649 2.422-9.139 5.812-10.017 18.64-1.942 25.636 6.013 5.209 14.943 5.196 20.942 0 3.889-3.369 5.869-8.334 5.483-13.323zM22.719 7.888c-2.079-0.532-4.361-0.813-6.721-0.813s-4.642 0.281-6.72 0.813c3.163-9.202 10.241-9.313 13.441 0zM8.584 2.888l-0-0c1.075-0.617 2.358-1.148 3.74-1.497-2.024 1.623-3.365 4.334-4.131 6.804-2.469 0.765-5.18 2.105-6.804 4.13 1.025-4.063 3.678-7.439 7.195-9.437zM7.886 9.28c-0.532 2.078-0.813 4.361-0.813 6.72 0 2.356 0.28 4.636 0.811 6.712-9.172-3.154-9.354-10.217 0.002-13.432zM1.387 19.666c0.719 0.9 1.707 1.732 2.94 2.462 1.135 0.672 2.441 1.235 3.864 1.675 0.767 2.476 2.104 5.171 4.113 6.792-5.284-1.358-9.565-5.552-10.918-10.929zM9.277 24.11c1.66 0.425 3.453 0.692 5.309 0.782 0.259 0.012 0.478-0.187 0.491-0.446s-0.187-0.478-0.446-0.491c-2.040-0.099-3.963-0.418-5.687-0.91-0.61-2.146-0.934-4.548-0.934-7.045 0-2.5 0.324-4.904 0.936-7.052 2.148-0.611 4.552-0.936 7.052-0.936s4.905 0.325 7.053 0.936c1.248 4.384 1.249 9.715 0 14.103-1.92 0.546-4.050 0.865-6.268 0.926-0.259 0.007-0.463 0.223-0.456 0.482 0.007 0.254 0.215 0.456 0.468 0.456 0.004 0 0.009-0 0.013-0 2.071-0.057 4.072-0.333 5.91-0.804-3.154 9.18-10.234 9.34-13.442-0.001zM19.692 30.595c2.012-1.623 3.348-4.321 4.113-6.791 1.34-0.415 2.576-0.939 3.668-1.562 1.326-0.757 2.38-1.628 3.137-2.574-1.353 5.376-5.634 9.569-10.917 10.927zM27.008 21.428c-0.874 0.499-1.847 0.931-2.897 1.291 1.084-4.233 1.085-9.201-0-13.439 7.771 2.671 9.437 8.413 2.897 12.148z"></path>
<path d="M12.631 15.996c0.247-0.201 0.39-0.564 0.39-1.009 0-0.774-0.458-1.183-1.323-1.183-1.088 0-1.378 0.709-1.378 1.128 0 0.298 0.104 0.393 0.43 0.393 0.33 0 0.4-0.194 0.4-0.357 0-0.271 0.182-0.408 0.542-0.408 0.363 0 0.518 0.16 0.518 0.536 0 0.484-0.199 0.579-0.542 0.579-0.403 0-0.409 0.707 0 0.707 0.445 0 0.653 0.182 0.653 0.573 0 0.449-0.047 0.781-0.646 0.781-0.464 0-0.628-0.236-0.628-0.438 0-0.298-0.217-0.338-0.43-0.338-0.28 0-0.393 0.107-0.393 0.369 0 0.582 0.497 1.17 1.446 1.17 0.946 0 1.488-0.52 1.488-1.427v-0.116c0-0.439-0.181-0.768-0.524-0.961z"></path>
<path d="M15.086 15.591c-0.312 0-0.568 0.075-0.763 0.222-0-0.637-0.097-1.246 0.652-1.246 0.3 0 0.622 0.141 0.622 0.451 0 0.126 0.056 0.338 0.43 0.338 0.099 0 0.4 0 0.4-0.369 0-0.588-0.494-1.183-1.44-1.183-0.964 0-1.495 0.518-1.495 1.458v1.78c0 0.94 0.522 1.458 1.47 1.458 0.944 0 1.464-0.518 1.464-1.458v-0.11c0-0.878-0.464-1.342-1.342-1.342zM14.964 17.775c-0.431 0-0.64-0.227-0.64-0.695v-0.159c0-0.424 0.201-0.622 0.634-0.622 0.439 0 0.634 0.209 0.634 0.677 0 0.472-0.1 0.799-0.628 0.799z"></path>
<path d="M18.249 13.805c-0.944 0-1.464 0.518-1.464 1.458v1.78c0 0.94 0.52 1.458 1.464 1.458 0.934 0 1.47-0.531 1.47-1.458v-1.78c0-0.927-0.536-1.458-1.47-1.458zM18.883 17.043c0 0.461-0.213 0.695-0.634 0.695-0.423 0-0.628-0.227-0.628-0.695v-1.78c0-0.468 0.205-0.695 0.628-0.695 0.421 0 0.634 0.234 0.634 0.695v1.78z"></path>
<path d="M20.931 13.183c-0.456 0-0.841 0.36-0.841 0.786v0.231c0 0.422 0.393 0.792 0.841 0.792 0.45 0 0.845-0.37 0.845-0.792v-0.231c0-0.426-0.387-0.786-0.845-0.786zM21.078 14.2c0 0.084-0.070 0.16-0.147 0.16-0.075 0-0.143-0.076-0.143-0.16v-0.231c0-0.071 0.063-0.153 0.143-0.153 0.083 0 0.147 0.082 0.147 0.153v0.231z"></path>
</symbol>
<symbol id="ploud-augmented-reality-service" viewBox="0 0 32 32">
<title>augmented-reality-service</title>
<path fill="#d9f3ff" style="fill: var(--color6, #d9f3ff)" d="M4.414 5.241h23.172v15.448h-23.172v-15.448z"></path>
<path fill="#b8bfd4" style="fill: var(--color7, #b8bfd4)" d="M20.965 27.31h4.414c0.305 0 0.552-0.247 0.552-0.552v-10.483c0-0.305-0.247-0.552-0.552-0.552h-4.414c-0.305 0-0.552 0.247-0.552 0.552v10.483c0 0.305 0.247 0.552 0.552 0.552z"></path>
<path fill="#959cb3" style="fill: var(--color8, #959cb3)" d="M19.31 27.31h4.965c0.305 0 0.552-0.247 0.552-0.552v-13.241c0-0.305-0.247-0.552-0.552-0.552h-4.965c-0.305 0-0.552 0.247-0.552 0.552v13.241c0 0.305 0.247 0.552 0.552 0.552z"></path>
<path fill="#b8bfd4" style="fill: var(--color7, #b8bfd4)" d="M16.552 27.31h4.414c0.305 0 0.552-0.247 0.552-0.552v-16c0-0.305-0.247-0.552-0.552-0.552h-4.414c-0.305 0-0.552 0.247-0.552 0.552v16c0 0.305 0.247 0.552 0.552 0.552z"></path>
<path fill="#959cb3" style="fill: var(--color8, #959cb3)" d="M9.931 27.31h4.414c0.305 0 0.552-0.247 0.552-0.552v-14.897c0-0.305-0.247-0.552-0.552-0.552h-4.414c-0.305 0-0.552 0.247-0.552 0.552v14.897c0 0.305 0.247 0.552 0.552 0.552z"></path>
<path fill="#b8bfd4" style="fill: var(--color7, #b8bfd4)" d="M6.069 27.31h4.414c0.305 0 0.552-0.247 0.552-0.552v-11.586c0-0.305-0.247-0.552-0.552-0.552h-4.414c-0.305 0-0.552 0.247-0.552 0.552v11.586c0 0.305 0.247 0.552 0.552 0.552z"></path>
<path fill="#c7cfe2" style="fill: var(--color9, #c7cfe2)" d="M12.69 27.31h5.517c0.305 0 0.552-0.247 0.552-0.552v-8.828c0-0.305-0.247-0.552-0.552-0.552h-5.517c-0.305 0-0.552 0.247-0.552 0.552v8.828c0 0.305 0.247 0.552 0.552 0.552z"></path>
<path fill="#707384" style="fill: var(--color10, #707384)" d="M0 5.793v14.345c0 0.914 0.741 1.655 1.655 1.655h28.69c0.914 0 1.655-0.741 1.655-1.655v-14.345c0-0.914-0.741-1.655-1.655-1.655h-28.69c-0.914 0-1.655 0.741-1.655 1.655zM27.586 5.241v15.448h-23.172v-15.448h23.172z"></path>
<path fill="#464655" style="fill: var(--color11, #464655)" d="M2.759 11.31v3.31c0 0.305-0.247 0.552-0.552 0.552v0c-0.305 0-0.552-0.247-0.552-0.552v-3.31c0-0.305 0.247-0.552 0.552-0.552v0c0.305 0 0.552 0.247 0.552 0.552z"></path>
<path fill="#464655" style="fill: var(--color11, #464655)" d="M2.759 16.828v0c0 0.305-0.247 0.552-0.552 0.552v0c-0.305 0-0.552-0.247-0.552-0.552v0c0-0.305 0.247-0.552 0.552-0.552v0c0.305 0 0.552 0.247 0.552 0.552z"></path>
<path fill="#464655" style="fill: var(--color11, #464655)" d="M30.897 12.966c0 0.609-0.494 1.103-1.103 1.103s-1.103-0.494-1.103-1.103c0-0.609 0.494-1.103 1.103-1.103s1.103 0.494 1.103 1.103z"></path>
<path fill="#959cb3" style="fill: var(--color8, #959cb3)" d="M31.448 27.862h-30.896c-0.305 0-0.552-0.247-0.552-0.552v0c0-0.305 0.247-0.552 0.552-0.552h30.897c0.305 0 0.552 0.247 0.552 0.552v0c-0 0.305-0.247 0.552-0.552 0.552z"></path>
<path fill="#ff6464" style="fill: var(--color12, #ff6464)" d="M15.448 6.345h-6.621c-0.305 0-0.552 0.247-0.552 0.552v2.207c0 0.305 0.247 0.552 0.552 0.552h2.207l0.713 0.713c0.215 0.215 0.565 0.215 0.78 0l0.713-0.713h2.207c0.305 0 0.552-0.247 0.552-0.552v-2.207c0-0.305-0.247-0.552-0.552-0.552z"></path>
<path fill="#ffd782" style="fill: var(--color13, #ffd782)" d="M9.931 8.552h0.552c0.305 0 0.552-0.247 0.552-0.552v0c0-0.305-0.247-0.552-0.552-0.552h-0.552c-0.305 0-0.552 0.247-0.552 0.552v0c0 0.305 0.247 0.552 0.552 0.552z"></path>
<path fill="#d2555a" style="fill: var(--color14, #d2555a)" d="M12.138 8.552h2.207c0.305 0 0.552-0.247 0.552-0.552v0c0-0.305-0.247-0.552-0.552-0.552h-2.207c-0.305 0-0.552 0.247-0.552 0.552v0c0 0.305 0.247 0.552 0.552 0.552z"></path>
<path fill="#ffd782" style="fill: var(--color13, #ffd782)" d="M18.207 12.414h-5.517c-0.305 0-0.552 0.247-0.552 0.552v2.207c0 0.305 0.247 0.552 0.552 0.552h1.655l0.713 0.713c0.215 0.215 0.565 0.215 0.78 0l0.713-0.713h1.655c0.305 0 0.552-0.247 0.552-0.552v-2.207c0-0.305-0.247-0.552-0.552-0.552z"></path>
<path fill="#fff" style="fill: var(--color15, #fff)" d="M13.793 14.621v0c0.305 0 0.552-0.247 0.552-0.552v0c0-0.305-0.247-0.552-0.552-0.552v0c-0.305 0-0.552 0.247-0.552 0.552v0c0 0.305 0.247 0.552 0.552 0.552z"></path>
<path fill="#ffc36e" style="fill: var(--color16, #ffc36e)" d="M15.448 14.621h1.655c0.305 0 0.552-0.247 0.552-0.552v0c0-0.305-0.247-0.552-0.552-0.552h-1.655c-0.305 0-0.552 0.247-0.552 0.552v0c0 0.305 0.247 0.552 0.552 0.552z"></path>
<path fill="#ffd782" style="fill: var(--color13, #ffd782)" d="M20.966 19.035c0 0.305-0.247 0.552-0.552 0.552s-0.552-0.247-0.552-0.552c0-0.305 0.247-0.552 0.552-0.552s0.552 0.247 0.552 0.552z"></path>
<path fill="#ffd782" style="fill: var(--color13, #ffd782)" d="M20.966 17.379c0 0.305-0.247 0.552-0.552 0.552s-0.552-0.247-0.552-0.552c0-0.305 0.247-0.552 0.552-0.552s0.552 0.247 0.552 0.552z"></path>
<path fill="#ffd782" style="fill: var(--color13, #ffd782)" d="M20.966 15.724c0 0.305-0.247 0.552-0.552 0.552s-0.552-0.247-0.552-0.552c0-0.305 0.247-0.552 0.552-0.552s0.552 0.247 0.552 0.552z"></path>
<path fill="#96e17d" style="fill: var(--color17, #96e17d)" d="M9.931 12.414c0-0.914-0.741-1.655-1.655-1.655s-1.655 0.741-1.655 1.655c0 0.72 0.462 1.326 1.103 1.554v0.653c0 0.305 0.247 0.552 0.552 0.552s0.552-0.247 0.552-0.552v-0.653c0.641-0.228 1.103-0.834 1.103-1.554z"></path>
<path fill="#6ec864" style="fill: var(--color18, #6ec864)" d="M9.103 12.414c0 0.457-0.37 0.828-0.828 0.828s-0.828-0.37-0.828-0.828c0-0.457 0.37-0.828 0.828-0.828s0.828 0.37 0.828 0.828z"></path>
<path fill="#ffc36e" style="fill: var(--color16, #ffc36e)" d="M23.724 16.276h-1.655c-0.305 0-0.552-0.247-0.552-0.552v0c0-0.305 0.247-0.552 0.552-0.552h1.655c0.305 0 0.552 0.247 0.552 0.552v0c0 0.305-0.247 0.552-0.552 0.552z"></path>
<path fill="#ffc36e" style="fill: var(--color16, #ffc36e)" d="M24.828 19.586h-2.759c-0.305 0-0.552-0.247-0.552-0.552v0c0-0.305 0.247-0.552 0.552-0.552h2.759c0.305 0 0.552 0.247 0.552 0.552v0c0 0.305-0.247 0.552-0.552 0.552z"></path>
<path fill="#ffc36e" style="fill: var(--color16, #ffc36e)" d="M23.724 17.931h-1.655c-0.305 0-0.552-0.247-0.552-0.552v0c0-0.305 0.247-0.552 0.552-0.552h1.655c0.305 0 0.552 0.247 0.552 0.552v0c0 0.305-0.247 0.552-0.552 0.552z"></path>
<path fill="#00d2ff" style="fill: var(--color19, #00d2ff)" d="M23.724 8h-5.517c-0.305 0-0.552 0.247-0.552 0.552v2.207c0 0.305 0.247 0.552 0.552 0.552h1.655l0.713 0.713c0.215 0.215 0.565 0.215 0.78 0l0.713-0.713h1.655c0.305 0 0.552-0.247 0.552-0.552v-2.207c0-0.305-0.247-0.552-0.552-0.552z"></path>
<path fill="#fff" style="fill: var(--color15, #fff)" d="M19.31 10.207v0c0.305 0 0.552-0.247 0.552-0.552v0c0-0.305-0.247-0.552-0.552-0.552v0c-0.305 0-0.552 0.247-0.552 0.552v0c0 0.305 0.247 0.552 0.552 0.552z"></path>
<path fill="#b8e9ff" style="fill: var(--color20, #b8e9ff)" d="M20.965 10.207v0c0.305 0 0.552-0.247 0.552-0.552v0c0-0.305-0.247-0.552-0.552-0.552v0c-0.305 0-0.552 0.247-0.552 0.552v0c0 0.305 0.247 0.552 0.552 0.552z"></path>
<path fill="#b8e9ff" style="fill: var(--color20, #b8e9ff)" d="M22.621 10.207v0c0.305 0 0.552-0.247 0.552-0.552v0c0-0.305-0.247-0.552-0.552-0.552v0c-0.305 0-0.552 0.247-0.552 0.552v0c0 0.305 0.247 0.552 0.552 0.552z"></path>
</symbol>
<symbol id="ploud-immersive-sensory-experience-service" viewBox="0 0 32 32">
<title>immersive-sensory-experience-service</title>
<path fill="#09c8d6" style="fill: var(--color21, #09c8d6)" d="M27.298 15.834c0 6.24-5.058 11.298-11.298 11.298s-11.298-5.058-11.298-11.298c0-6.24 5.058-11.298 11.298-11.298s11.298 5.058 11.298 11.298z"></path>
<path fill="#00233f" style="fill: var(--color22, #00233f)" d="M27.155 8.862c0-0.904-7.686-1.65-9.735-1.769v-0.689c0.955-0.776 1.607-2.216 1.607-3.375 0-1.672-1.356-3.029-3.028-3.029s-3.029 1.357-3.029 3.029c0 1.159 0.652 2.598 1.607 3.374v0.69c-2.050 0.119-9.733 0.866-9.733 1.769 0 0.633 3.772 1.189 6.737 1.506-0.004 0.056-0.012 0.111-0.012 0.169l0.543 8.177c0 0.202 0.023 0.399 0.058 0.593-0.009 0.072-0.022 0.143-0.022 0.218 0 0.958 0.777 12.144 1.735 12.144 0.693 0 1.29-5.84 1.569-9.441 0.179 0.023 0.361 0.039 0.548 0.039s0.368-0.016 0.548-0.039c0.278 3.601 0.876 9.441 1.568 9.441 0.958 0 1.735-11.186 1.735-12.144 0-0.075-0.012-0.146-0.022-0.219 0.036-0.193 0.059-0.39 0.059-0.592l0.543-8.177c0-0.057-0.009-0.113-0.012-0.169 2.964-0.317 6.737-0.873 6.737-1.506z"></path>
<path fill="#ff7c24" style="fill: var(--color23, #ff7c24)" d="M18.495 2.295c0 0.345-0.279 0.625-0.624 0.625h-3.722c-0.346 0-0.625-0.28-0.625-0.625v0c0-0.345 0.279-0.625 0.625-0.625h3.722c0.345 0 0.624 0.279 0.624 0.625v0z"></path>
<path fill="#09c8d6" style="fill: var(--color21, #09c8d6)" d="M19.536 3.376c0 0.419-0.34 0.757-0.758 0.757h-5.557c-0.418 0-0.758-0.339-0.758-0.757v0c0-0.419 0.34-0.757 0.758-0.757h5.557c0.418 0 0.758 0.339 0.758 0.757v0z"></path>
<path fill="#0b9bd3" style="fill: var(--color24, #0b9bd3)" d="M19.536 3.376v0c0 0.419-0.34 0.757-0.758 0.757h-5.557c-0.418 0-0.758-0.339-0.758-0.757v0z"></path>
<path fill="#ff7c24" style="fill: var(--color23, #ff7c24)" d="M18.991 4.373c0 0.181-0.147 0.328-0.328 0.328h-5.327c-0.181 0-0.328-0.147-0.328-0.328v-1.994c0-0.182 0.147-0.329 0.328-0.329h5.327c0.181 0 0.328 0.147 0.328 0.329v1.994z"></path>
<path fill="#ff9827" style="fill: var(--color25, #ff9827)" d="M18.664 2.051h-5.327c-0.181 0-0.328 0.147-0.328 0.329v1.55c0 0.181 0.147 0.328 0.328 0.328h5.327c0.181 0 0.328-0.146 0.328-0.328v-1.55c0-0.182-0.147-0.329-0.328-0.329z"></path>
<path fill="#ffb829" style="fill: var(--color26, #ffb829)" d="M18.664 4.258c0.181 0 0.328-0.146 0.328-0.328v-1.551c0-0.182-0.147-0.329-0.328-0.329h-5.327c-0.181 0-0.328 0.147-0.328 0.329z"></path>
<path fill="#15e5aa" style="fill: var(--color27, #15e5aa)" d="M13.711 2.423c0 0.103-0.083 0.186-0.186 0.186s-0.186-0.083-0.186-0.186c0-0.103 0.083-0.186 0.186-0.186s0.186 0.083 0.186 0.186z"></path>
<path fill="#09c8d6" style="fill: var(--color21, #09c8d6)" d="M13.71 2.423c0 0.103-0.083 0.186-0.187 0.186s-0.186-0.083-0.186-0.186z"></path>
<path fill="#15e5aa" style="fill: var(--color27, #15e5aa)" d="M14.302 2.423c0 0.103-0.083 0.186-0.186 0.186s-0.186-0.083-0.186-0.186c0-0.103 0.083-0.186 0.186-0.186s0.186 0.083 0.186 0.186z"></path>
<path fill="#09c8d6" style="fill: var(--color21, #09c8d6)" d="M14.302 2.423c0 0.103-0.083 0.186-0.187 0.186s-0.186-0.083-0.186-0.186z"></path>
<path fill="#15e5aa" style="fill: var(--color27, #15e5aa)" d="M14.894 2.423c0 0.103-0.083 0.186-0.186 0.186s-0.186-0.083-0.186-0.186c0-0.103 0.083-0.186 0.186-0.186s0.186 0.083 0.186 0.186z"></path>
<path fill="#09c8d6" style="fill: var(--color21, #09c8d6)" d="M14.893 2.423c0 0.103-0.083 0.186-0.187 0.186s-0.186-0.083-0.186-0.186z"></path>
<path fill="#09c8d6" style="fill: var(--color21, #09c8d6)" d="M15.012 13.834h-0.495v-2.624l-2.21-2.21h-6.886v-0.494h7.091l2.499 2.5z"></path>
<path fill="#ff9827" style="fill: var(--color25, #ff9827)" d="M9.175 8.844c0 0.341-0.276 0.617-0.617 0.617s-0.617-0.276-0.617-0.617c0-0.341 0.276-0.617 0.617-0.617s0.617 0.276 0.617 0.617z"></path>
<path fill="#ff7c24" style="fill: var(--color23, #ff7c24)" d="M8.121 8.408c0.241-0.241 0.632-0.241 0.873 0s0.241 0.632 0 0.873z"></path>
<path fill="#ff9827" style="fill: var(--color25, #ff9827)" d="M5.784 8.844c0 0.341-0.276 0.617-0.617 0.617s-0.617-0.276-0.617-0.617c0-0.341 0.276-0.617 0.617-0.617s0.617 0.276 0.617 0.617z"></path>
<path fill="#ff7c24" style="fill: var(--color23, #ff7c24)" d="M4.73 8.408c0.24-0.241 0.632-0.241 0.873 0s0.241 0.632 0 0.873z"></path>
<path fill="#ff9827" style="fill: var(--color25, #ff9827)" d="M12.938 8.844c0 0.341-0.276 0.617-0.617 0.617s-0.617-0.276-0.617-0.617c0-0.341 0.276-0.617 0.617-0.617s0.617 0.276 0.617 0.617z"></path>
<path fill="#ff7c24" style="fill: var(--color23, #ff7c24)" d="M11.884 8.408c0.24-0.241 0.632-0.241 0.873 0s0.241 0.632 0 0.873z"></path>
<path fill="#ff9827" style="fill: var(--color25, #ff9827)" d="M15.392 14.111c0 0.341-0.276 0.617-0.617 0.617s-0.617-0.276-0.617-0.617c0-0.341 0.276-0.617 0.617-0.617s0.617 0.276 0.617 0.617z"></path>
<path fill="#ff7c24" style="fill: var(--color23, #ff7c24)" d="M14.337 13.675c0.241-0.241 0.632-0.241 0.873 0s0.241 0.632 0 0.873z"></path>
<path fill="#09c8d6" style="fill: var(--color21, #09c8d6)" d="M14.080 31.38h-0.495v-11.030l0.949-0.948v-3.155h0.495v3.36l-0.949 0.948z"></path>
<path fill="#ff9827" style="fill: var(--color25, #ff9827)" d="M15.392 16.382c0 0.341-0.276 0.617-0.617 0.617s-0.617-0.276-0.617-0.617c0-0.341 0.276-0.617 0.617-0.617s0.617 0.276 0.617 0.617z"></path>
<path fill="#ff7c24" style="fill: var(--color23, #ff7c24)" d="M14.337 15.943c0.241-0.241 0.632-0.241 0.873 0s0.241 0.632 0 0.873z"></path>
<path fill="#ff9827" style="fill: var(--color25, #ff9827)" d="M14.481 20.462c0 0.341-0.276 0.617-0.617 0.617s-0.617-0.276-0.617-0.617c0-0.341 0.276-0.617 0.617-0.617s0.617 0.276 0.617 0.617z"></path>
<path fill="#ff7c24" style="fill: var(--color23, #ff7c24)" d="M13.43 20.025c0.241-0.241 0.631-0.241 0.873 0s0.241 0.632 0 0.873z"></path>
<path fill="#ff9827" style="fill: var(--color25, #ff9827)" d="M14.481 25.408c0 0.341-0.276 0.617-0.617 0.617s-0.617-0.276-0.617-0.617c0-0.341 0.276-0.617 0.617-0.617s0.617 0.276 0.617 0.617z"></path>
<path fill="#ff7c24" style="fill: var(--color23, #ff7c24)" d="M13.43 24.973c0.241-0.241 0.631-0.241 0.873 0s0.241 0.632 0 0.872z"></path>
<path fill="#ff9827" style="fill: var(--color25, #ff9827)" d="M14.481 31.383c0 0.341-0.276 0.617-0.617 0.617s-0.617-0.276-0.617-0.617c0-0.341 0.276-0.617 0.617-0.617s0.617 0.276 0.617 0.617z"></path>
<path fill="#ff7c24" style="fill: var(--color23, #ff7c24)" d="M13.43 30.943c0.241-0.241 0.631-0.241 0.873 0s0.241 0.632 0 0.873z"></path>
<path fill="#09c8d6" style="fill: var(--color21, #09c8d6)" d="M16.987 13.834h0.495v-2.624l2.21-2.21h6.886v-0.494h-7.091l-2.5 2.5z"></path>
<path fill="#ff9827" style="fill: var(--color25, #ff9827)" d="M24.060 8.844c0 0.341-0.276 0.617-0.617 0.617s-0.617-0.276-0.617-0.617c0-0.341 0.276-0.617 0.617-0.617s0.617 0.276 0.617 0.617z"></path>
<path fill="#ff7c24" style="fill: var(--color23, #ff7c24)" d="M23.879 8.408c-0.241-0.241-0.632-0.241-0.873 0s-0.241 0.632 0 0.873z"></path>
<path fill="#ff9827" style="fill: var(--color25, #ff9827)" d="M27.451 8.844c0 0.341-0.276 0.617-0.617 0.617s-0.617-0.276-0.617-0.617c0-0.341 0.276-0.617 0.617-0.617s0.617 0.276 0.617 0.617z"></path>
<path fill="#ff7c24" style="fill: var(--color23, #ff7c24)" d="M27.27 8.408c-0.241-0.241-0.632-0.241-0.873 0s-0.24 0.632 0 0.873z"></path>
<path fill="#ff9827" style="fill: var(--color25, #ff9827)" d="M20.297 8.844c0 0.341-0.276 0.617-0.617 0.617s-0.617-0.276-0.617-0.617c0-0.341 0.276-0.617 0.617-0.617s0.617 0.276 0.617 0.617z"></path>
<path fill="#ff7c24" style="fill: var(--color23, #ff7c24)" d="M20.117 8.408c-0.241-0.241-0.633-0.241-0.874 0s-0.241 0.632 0 0.873z"></path>
<path fill="#ff9827" style="fill: var(--color25, #ff9827)" d="M17.844 14.111c0 0.341-0.276 0.617-0.617 0.617s-0.617-0.276-0.617-0.617c0-0.341 0.276-0.617 0.617-0.617s0.617 0.276 0.617 0.617z"></path>
<path fill="#ff7c24" style="fill: var(--color23, #ff7c24)" d="M17.663 13.675c-0.241-0.241-0.633-0.241-0.874 0s-0.241 0.632 0 0.873z"></path>
<path fill="#09c8d6" style="fill: var(--color21, #09c8d6)" d="M17.92 31.38h0.495v-11.030l-0.948-0.948v-3.155h-0.495v3.36l0.948 0.948z"></path>
<path fill="#ff9827" style="fill: var(--color25, #ff9827)" d="M17.844 16.382c0 0.341-0.276 0.617-0.617 0.617s-0.617-0.276-0.617-0.617c0-0.341 0.276-0.617 0.617-0.617s0.617 0.276 0.617 0.617z"></path>
<path fill="#ff7c24" style="fill: var(--color23, #ff7c24)" d="M17.663 15.943c-0.241-0.241-0.633-0.241-0.874 0s-0.241 0.632 0 0.873z"></path>
<path fill="#ff9827" style="fill: var(--color25, #ff9827)" d="M18.751 20.462c0 0.341-0.276 0.617-0.617 0.617s-0.617-0.276-0.617-0.617c0-0.341 0.276-0.617 0.617-0.617s0.617 0.276 0.617 0.617z"></path>
<path fill="#ff7c24" style="fill: var(--color23, #ff7c24)" d="M18.57 20.025c-0.241-0.241-0.632-0.241-0.873 0s-0.241 0.632 0 0.873z"></path>
<path fill="#ff9827" style="fill: var(--color25, #ff9827)" d="M18.751 25.408c0 0.341-0.276 0.617-0.617 0.617s-0.617-0.276-0.617-0.617c0-0.341 0.276-0.617 0.617-0.617s0.617 0.276 0.617 0.617z"></path>
<path fill="#ff7c24" style="fill: var(--color23, #ff7c24)" d="M18.57 24.973c-0.241-0.241-0.632-0.241-0.873 0s-0.241 0.632 0 0.872z"></path>
<path fill="#ff9827" style="fill: var(--color25, #ff9827)" d="M18.751 31.383c0 0.341-0.276 0.617-0.617 0.617s-0.617-0.276-0.617-0.617c0-0.341 0.276-0.617 0.617-0.617s0.617 0.276 0.617 0.617z"></path>
<path fill="#ff7c24" style="fill: var(--color23, #ff7c24)" d="M18.57 30.943c-0.241-0.241-0.632-0.241-0.873 0s-0.241 0.632 0 0.873z"></path>
<path fill="#09c8d6" style="fill: var(--color21, #09c8d6)" d="M16.907 8.268c0 0.080-0.065 0.144-0.144 0.144h-1.525c-0.080 0-0.145-0.065-0.145-0.144v0c0-0.080 0.065-0.145 0.145-0.145h1.525c0.079 0 0.144 0.065 0.144 0.145v0z"></path>
<path fill="#09c8d6" style="fill: var(--color21, #09c8d6)" d="M16.907 8.968c0 0.080-0.065 0.144-0.144 0.144h-1.525c-0.080 0-0.145-0.065-0.145-0.144v0c0-0.080 0.065-0.145 0.145-0.145h1.525c0.079 0 0.144 0.065 0.144 0.145v0z"></path>
<path fill="#09c8d6" style="fill: var(--color21, #09c8d6)" d="M16.907 9.669c0 0.080-0.065 0.144-0.144 0.144h-1.525c-0.080 0-0.145-0.065-0.145-0.144v0c0-0.080 0.065-0.144 0.145-0.144h1.525c0.079 0 0.144 0.065 0.144 0.144v0z"></path>
</symbol>
<symbol id="ploud-mixed-reality-data-visualization-service" viewBox="0 0 32 32">
<title>mixed-reality-data-visualization-service</title>
<path fill="#0e9bd3" style="fill: var(--color28, #0e9bd3)" d="M24.553 3.664h0.53v6.179h-0.53v-6.179z"></path>
<path fill="#0e9bd3" style="fill: var(--color28, #0e9bd3)" d="M17.182 9.865h5.56v0.53h-5.56v-0.53z"></path>
<path fill="#0e9bd3" style="fill: var(--color28, #0e9bd3)" d="M17.182 10.991h5.56v0.53h-5.56v-0.53z"></path>
<path fill="#0e9bd3" style="fill: var(--color28, #0e9bd3)" d="M17.182 12.116h5.56v0.53h-5.56v-0.53z"></path>
<path fill="#c0e0e2" style="fill: var(--color29, #c0e0e2)" d="M2.617 21.319h7.68l4.502-4.502h3.045v-3.046h3.973z"></path>
<path fill="#0e9bd3" style="fill: var(--color28, #0e9bd3)" d="M10.406 21.584h-7.789v-0.53h7.57l4.502-4.502h2.89v-3.046h4.238v0.53h-3.707v3.045h-3.201z"></path>
<path fill="#c0e0e2" style="fill: var(--color29, #c0e0e2)" d="M6.545 2.87v7.239h8.298z"></path>
<path fill="#0e9bd3" style="fill: var(--color28, #0e9bd3)" d="M14.843 10.373h-8.562v-7.503h0.529v6.974h8.033z"></path>
<path fill="#0e9bd3" style="fill: var(--color28, #0e9bd3)" d="M23.825 3.399h1.986v0.53h-1.986v-0.53z"></path>
<path fill="#06b6ed" style="fill: var(--color30, #06b6ed)" d="M27.591 13.108c0 2.095-1.698 3.794-3.794 3.794-2.098 0-3.795-1.698-3.795-3.794s1.698-3.794 3.795-3.794c2.096 0 3.794 1.698 3.794 3.794z"></path>
<path fill="#0b9bd3" style="fill: var(--color24, #0b9bd3)" d="M26.479 10.426c1.482 1.481 1.482 3.883 0 5.365-1.481 1.482-3.884 1.483-5.365 0z"></path>
<path fill="#0b9bd3" style="fill: var(--color24, #0b9bd3)" d="M26.505 13.108c0 1.497-1.213 2.71-2.71 2.71s-2.71-1.213-2.71-2.71c0-1.497 1.213-2.71 2.71-2.71s2.71 1.213 2.71 2.71z"></path>
<path fill="#0d7dd1" style="fill: var(--color31, #0d7dd1)" d="M23.797 10.398c1.496 0 2.709 1.214 2.709 2.71s-1.213 2.71-2.709 2.71z"></path>
<path fill="#0d53b7" style="fill: var(--color32, #0d53b7)" d="M23.797 14.104v1.68l0.020 0.032c1.137-0.008 2.106-0.717 2.499-1.717l-1.645-1.646-0.874 1.65z"></path>
<path fill="#09c8d6" style="fill: var(--color21, #09c8d6)" d="M29.735 18.297c-0.323 0-0.615 0.133-0.825 0.346-0.102-0.535-0.573-0.94-1.137-0.94-0.337 0-0.637 0.146-0.849 0.376-0.136-0.489-0.58-0.851-1.113-0.851-0.313 0-0.594 0.125-0.802 0.326v-4.264c0-0.64-0.52-1.16-1.159-1.16s-1.159 0.52-1.159 1.16v11.118l-2.703-2.33c-0.377-0.518-1.103-0.632-1.62-0.253-0.518 0.377-0.63 1.103-0.253 1.619l4.695 5.855c0.156 0.214 0.555 0.71 1.009 1.194-0.146 0.721-0.453 1.245 0.344 1.245h4.95c0.985 0 1.782-0.799 1.782-1.784v-10.494c-0.002-0.64-0.52-1.16-1.16-1.16z"></path>
<path fill="#0b9bd3" style="fill: var(--color24, #0b9bd3)" d="M29.735 18.297c-0.323 0-0.615 0.133-0.825 0.346-0.102-0.535-0.573-0.94-1.137-0.94-0.337 0-0.637 0.146-0.849 0.376-0.136-0.489-0.58-0.851-1.113-0.851-0.313 0-0.594 0.125-0.802 0.326v-4.264c0-0.64-0.52-1.16-1.159-1.16s-1.159 0.52-1.159 1.16v4.168l8.204 8.205v-6.205c-0.001-0.64-0.52-1.16-1.159-1.16z"></path>
<path fill="#09c8d6" style="fill: var(--color21, #09c8d6)" d="M25.008 13.289c0-0.64-0.52-1.16-1.159-1.16s-1.159 0.52-1.159 1.16v1.784c0.315-0.038 0.729-0.167 1.184-0.167 0.429 0 0.825 0.117 1.134 0.161v-1.778h-0z"></path>
<path fill="#0d53b7" style="fill: var(--color32, #0d53b7)" d="M31.094 31.294c0 0.39-0.317 0.706-0.706 0.706h-6.356c-0.39 0-0.707-0.316-0.707-0.706v0c0-0.39 0.317-0.706 0.707-0.706h6.356c0.39 0 0.706 0.317 0.706 0.706v0z"></path>
<path fill="#09c8d6" style="fill: var(--color21, #09c8d6)" d="M9.37 13.228c0 0.097-0.078 0.176-0.176 0.176h-6.401c-0.096 0-0.176-0.079-0.176-0.176v0c0-0.097 0.079-0.176 0.176-0.176h6.402c0.098 0 0.176 0.079 0.176 0.176v0z"></path>
<path fill="#09c8d6" style="fill: var(--color21, #09c8d6)" d="M9.37 14.565c0 0.098-0.078 0.177-0.176 0.177h-6.401c-0.096 0-0.176-0.079-0.176-0.177v0c0-0.097 0.079-0.176 0.176-0.176h6.402c0.098 0 0.176 0.079 0.176 0.176v0z"></path>
<path fill="#09c8d6" style="fill: var(--color21, #09c8d6)" d="M9.37 15.902c0 0.097-0.078 0.176-0.176 0.176h-6.401c-0.096 0-0.176-0.079-0.176-0.176v0c0-0.097 0.079-0.177 0.176-0.177h6.402c0.098 0 0.176 0.079 0.176 0.177v0z"></path>
<path fill="#09c8d6" style="fill: var(--color21, #09c8d6)" d="M9.37 17.238c0 0.096-0.078 0.176-0.176 0.176h-6.401c-0.096 0-0.176-0.079-0.176-0.176v0c0-0.097 0.079-0.176 0.176-0.176h6.402c0.098 0 0.176 0.079 0.176 0.176v0z"></path>
<path fill="#09c8d6" style="fill: var(--color21, #09c8d6)" d="M9.37 18.574c0 0.096-0.078 0.175-0.176 0.175h-3.869c-0.096 0-0.176-0.079-0.176-0.175v0c0-0.097 0.079-0.177 0.176-0.177h3.869c0.098 0 0.176 0.080 0.176 0.177v0z"></path>
<path fill="#ff9827" style="fill: var(--color25, #ff9827)" d="M3.466 21.242c0 0.707-0.573 1.28-1.28 1.28s-1.28-0.573-1.28-1.28c0-0.707 0.573-1.28 1.28-1.28s1.28 0.573 1.28 1.28z"></path>
<path fill="#ff7c24" style="fill: var(--color23, #ff7c24)" d="M1.281 20.337c0.5-0.5 1.31-0.5 1.81 0s0.499 1.31 0 1.81z"></path>
<path fill="#15e5aa" style="fill: var(--color27, #15e5aa)" d="M11.842 14.588c0 0.086-0.069 0.156-0.156 0.156v0c-0.085 0-0.155-0.069-0.155-0.156v-1.103c0-0.085 0.069-0.155 0.155-0.155v0c0.086 0 0.156 0.069 0.156 0.155v1.103z"></path>
<path fill="#15e5aa" style="fill: var(--color27, #15e5aa)" d="M11.135 14.19c-0.084 0-0.153-0.068-0.153-0.154v0c0-0.085 0.069-0.155 0.153-0.155h1.104c0.085 0 0.155 0.069 0.155 0.155v0c0 0.086-0.069 0.154-0.155 0.154h-1.104z"></path>
<path fill="#15e5aa" style="fill: var(--color27, #15e5aa)" d="M16.454 9.468c0 0.22-0.178 0.398-0.398 0.398s-0.398-0.178-0.398-0.398c0-0.22 0.178-0.398 0.398-0.398s0.398 0.178 0.398 0.398z"></path>
<path fill="#15e5aa" style="fill: var(--color27, #15e5aa)" d="M16.454 11.255c0 0.22-0.178 0.398-0.398 0.398s-0.398-0.178-0.398-0.398c0-0.22 0.178-0.398 0.398-0.398s0.398 0.178 0.398 0.398z"></path>
<path fill="#15e5aa" style="fill: var(--color27, #15e5aa)" d="M16.454 13.043c0 0.22-0.178 0.398-0.398 0.398s-0.398-0.178-0.398-0.398c0-0.22 0.178-0.398 0.398-0.398s0.398 0.178 0.398 0.398z"></path>
<path fill="#15e5aa" style="fill: var(--color27, #15e5aa)" d="M16.454 14.83c0 0.22-0.178 0.398-0.398 0.398s-0.398-0.178-0.398-0.398c0-0.22 0.178-0.398 0.398-0.398s0.398 0.178 0.398 0.398z"></path>
<path fill="#ff9827" style="fill: var(--color25, #ff9827)" d="M7.637 2.241c0 0.707-0.573 1.28-1.28 1.28s-1.28-0.573-1.28-1.28c0-0.707 0.573-1.28 1.28-1.28s1.28 0.573 1.28 1.28z"></path>
<path fill="#ff7c24" style="fill: var(--color23, #ff7c24)" d="M5.452 1.335c0.5-0.5 1.31-0.5 1.81 0s0.5 1.31 0 1.81z"></path>
<path fill="#ff9827" style="fill: var(--color25, #ff9827)" d="M26.1 1.281c0 0.707-0.573 1.28-1.28 1.28s-1.28-0.573-1.28-1.28c0-0.707 0.573-1.28 1.28-1.28s1.28 0.573 1.28 1.28z"></path>
<path fill="#ff7c24" style="fill: var(--color23, #ff7c24)" d="M23.913 0.375c0.499-0.5 1.31-0.5 1.81 0 0.499 0.5 0.499 1.31 0 1.81z"></path>
</symbol>
<symbol id="ploud-training-simulation-service" viewBox="0 0 32 32">
<title>training-simulation-service</title>
<path fill="#ac92ec" style="fill: var(--color33, #ac92ec)" d="M16.516 2.323h2.065v2.065h-2.065v-2.065z"></path>
<path fill="#ac92ec" style="fill: var(--color33, #ac92ec)" d="M21.161 0.258h5.161v5.161h-5.161v-5.161z"></path>
<path fill="#ac92ec" style="fill: var(--color33, #ac92ec)" d="M25.29 7.484h2.581v2.581h-2.581v-2.581z"></path>
<path fill="#ccd1d9" style="fill: var(--color34, #ccd1d9)" d="M24.258 14.194h7.742v1.548h-7.742v-1.548z"></path>
<path fill="#e6e9ed" style="fill: var(--color35, #e6e9ed)" d="M24.258 15.742h7.742v5.677h-7.742v-5.677z"></path>
<path fill="#5d9cec" style="fill: var(--color36, #5d9cec)" d="M14.452 25.548l1.548-0.516 1.548 0.516 1.032-1.032h2.065c1.714 0 3.097 1.383 3.097 3.097v3.097c0 0.568-0.459 1.032-1.032 1.032h-13.419c-0.573 0-1.032-0.465-1.032-1.032v-3.097c0-1.714 1.383-3.097 3.097-3.097h2.065l1.032 1.032z"></path>
<path fill="#4a89dc" style="fill: var(--color37, #4a89dc)" d="M20.645 24.516h-2.065c1.714 0 3.097 1.383 3.097 3.097v3.097c0 0.568-0.459 1.032-1.032 1.032h2.065c0.573 0 1.032-0.465 1.032-1.032v-3.097c0-1.714-1.383-3.097-3.097-3.097z"></path>
<path fill="#f5f7fa" style="fill: var(--color38, #f5f7fa)" d="M16 25.032l-1.548 0.516-1.032-1.032v-1.652c0.774 0.397 1.652 0.619 2.581 0.619s1.806-0.222 2.581-0.619v1.652l-1.032 1.032-1.548-0.516z"></path>
<path fill="#eac6bb" style="fill: var(--color39, #eac6bb)" d="M21.677 15.742v2.065c0 2.204-1.259 4.118-3.097 5.058-0.774 0.397-1.652 0.619-2.581 0.619s-1.806-0.222-2.581-0.619c-1.837-0.939-3.097-2.854-3.097-5.058v-2.065l1.548-1.548c0 0 1.915 1.032 4.129 1.032s4.129-1.032 4.129-1.032l1.548 1.548z"></path>
<path fill="#d3b1a9" style="fill: var(--color40, #d3b1a9)" d="M20.129 14.194c0 0-0.189 0.102-0.516 0.242v3.371c0 2.204-1.259 4.118-3.097 5.058-0.479 0.246-1.002 0.415-1.548 0.516 0.335 0.062 0.678 0.104 1.032 0.104 0.929 0 1.806-0.222 2.581-0.619 1.837-0.939 3.097-2.854 3.097-5.058v-2.065l-1.548-1.548z"></path>
<path fill="#965353" style="fill: var(--color41, #965353)" d="M11.871 14.194l-1.548 1.548v-2.581c0-2.57 2.080-4.645 4.645-4.645h4.129v2.065c1.425 0 2.581 1.15 2.581 2.581v2.581l-1.548-1.548c0 0-1.915 1.032-4.129 1.032s-4.129-1.032-4.129-1.032z"></path>
<path fill="#844747" style="fill: var(--color42, #844747)" d="M19.097 10.581v-2.065h-2.065v3.097c1.425 0 2.581 0.634 2.581 2.065v0.758c0.327-0.14 0.516-0.242 0.516-0.242l1.548 1.548v-2.581c0-1.43-1.156-2.581-2.581-2.581z"></path>
<path fill="#e6e9ed" style="fill: var(--color35, #e6e9ed)" d="M3.097 19.355l1.001 1.337-0.485 0.728h-2.065z"></path>
<path fill="#f5f7fa" style="fill: var(--color38, #f5f7fa)" d="M5.677 18.323l2.065 3.097h-4.129l0.485-0.728z"></path>
<path fill="#48cfad" style="fill: var(--color43, #48cfad)" d="M7.742 15.226v6.194l-2.065-3.097-1.579 2.369-1.001-1.337-1.548 2.065h-1.548v-6.194z"></path>
<path fill="#a0d468" style="fill: var(--color44, #a0d468)" d="M10.054 4.381l-0.010 0.006h-3.334c-0.568 0-1.032-0.465-1.032-1.032 0-0.573 0.465-1.032 1.032-1.032h1.879c0.666 0.531 1.177 1.238 1.466 2.059z"></path>
<path fill="#a0d468" style="fill: var(--color44, #a0d468)" d="M3.613 7.484c0.568 0 1.032 0.459 1.032 1.032 0 0.568-0.465 1.032-1.032 1.032h-0.846c-0.666-0.532-1.177-1.244-1.466-2.065h2.313z"></path>
<path fill="#5d9cec" style="fill: var(--color36, #5d9cec)" d="M5.677 1.29c1.105 0 2.116 0.387 2.911 1.032h-1.879c-0.568 0-1.032 0.459-1.032 1.032 0 0.568 0.465 1.032 1.032 1.032h3.334l0.011-0.006c0.175 0.486 0.268 1.006 0.268 1.554 0 2.565-2.080 4.645-4.645 4.645-1.105 0-2.116-0.387-2.911-1.032h0.846c0.568 0 1.032-0.465 1.032-1.032 0-0.573-0.465-1.032-1.032-1.032h-2.312c-0.175-0.481-0.268-1.001-0.268-1.548 0-2.566 2.080-4.645 4.645-4.645z"></path>
<path fill="#aab2bd" style="fill: var(--color45, #aab2bd)" d="M29.935 18.323h-3.57c-0.285 0-0.516-0.231-0.516-0.516s0.231-0.516 0.516-0.516h3.57c0.285 0 0.516 0.231 0.516 0.516s-0.231 0.516-0.516 0.516z"></path>
<path fill="#aab2bd" style="fill: var(--color45, #aab2bd)" d="M28.387 19.871h-2.022c-0.285 0-0.516-0.231-0.516-0.516s0.231-0.516 0.516-0.516h2.022c0.285 0 0.516 0.231 0.516 0.516s-0.231 0.516-0.516 0.516z"></path>
<path fill="#ffce54" style="fill: var(--color46, #ffce54)" d="M2.081 18.062c-0.427 0-0.776-0.345-0.776-0.772s0.342-0.772 0.768-0.772h0.008c0.426 0 0.772 0.345 0.772 0.772s-0.346 0.772-0.772 0.772z"></path>
</symbol>
</defs>
</svg>
