<?xml version="1.0" encoding="iso-8859-1"?>
<!-- Generator: Adobe Illustrator 19.0.0, SVG Export Plug-In . SVG Version: 6.00 Build 0)  -->
<svg version="1.1" id="Capa_1" xmlns="http://www.w3.org/2000/svg" xmlns:xlink="http://www.w3.org/1999/xlink" x="0px" y="0px"
	 viewBox="0 0 496 496" style="enable-background:new 0 0 496 496;" xml:space="preserve">
<g>
	<rect x="184" y="96" style="fill:#FFA64D;" width="96" height="32"/>
	<rect x="320" y="240" style="fill:#FFA64D;" width="144" height="160"/>
</g>
<g>
	<path style="fill:#333333;" d="M456,160h-24.808c-3.712-18.232-19.872-32-39.192-32v-24c0-13.232-10.768-24-24-24h-57.472
		c-3.312-9.288-12.112-16-22.528-16h-8V0h-96v64h-8c-10.416,0-19.216,6.712-22.528,16H96c-13.232,0-24,10.768-24,24v24
		c-22.056,0-40,17.944-40,40v8h-8c-13.232,0-24,10.768-24,24v96c0,13.232,10.768,24,24,24h8v8c0,22.056,17.944,40,40,40h216v88
		c0,22.056,17.944,40,40,40h128c22.056,0,40-17.944,40-40V200C496,177.944,478.056,160,456,160z M480,200v8H304v-8
		c0-13.232,10.768-24,24-24h128C469.232,176,480,186.768,480,200z M112,232v32H80v-32H112z M96,280h32v-64H96v-16
		c0-4.408,3.584-8,8-8h184.808c-0.528,2.584-0.808,5.264-0.808,8v104H104c-4.416,0-8-3.584-8-8V280z M304,224h176v192H304V224z
		 M200,48h16V32h-16V16h64v16h-16v16h16v16h-64V48z M176,80h112c4.416,0,8,3.592,8,8v40H168V88C168,83.592,171.584,80,176,80z
		 M88,104c0-4.408,3.584-8,8-8h56v32H88V104z M72,352c-13.232,0-24-10.768-24-24v-48H32v24h-8c-4.416,0-8-3.584-8-8v-96
		c0-4.408,3.584-8,8-8h8v72h16v-96c0-13.232,10.768-24,24-24h272v-16h-32V96h56c4.416,0,8,3.592,8,8v24h-16v16h32
		c10.416,0,19.216,6.712,22.528,16H328c-13.128,0-24.704,6.448-32,16.248V176H104c-13.232,0-24,10.768-24,24v16H64v64h16v16
		c0,13.232,10.768,24,24,24h184v32H72z M456,480H328c-13.232,0-24-10.768-24-24v-24h176v24C480,469.232,469.232,480,456,480z"/>
	<rect x="360" y="448" style="fill:#333333;" width="64" height="16"/>
</g>
<g>
</g>
<g>
</g>
<g>
</g>
<g>
</g>
<g>
</g>
<g>
</g>
<g>
</g>
<g>
</g>
<g>
</g>
<g>
</g>
<g>
</g>
<g>
</g>
<g>
</g>
<g>
</g>
<g>
</g>
</svg>
