<?xml version="1.0" encoding="iso-8859-1"?>
<!-- Generator: Adobe Illustrator 19.0.0, SVG Export Plug-In . SVG Version: 6.00 Build 0)  -->
<svg version="1.1" id="Layer_1" xmlns="http://www.w3.org/2000/svg" xmlns:xlink="http://www.w3.org/1999/xlink" x="0px" y="0px"
	 viewBox="0 0 512 512" style="enable-background:new 0 0 512 512;" xml:space="preserve">
<rect x="70.621" y="83.862" style="fill:#D9F3FF;" width="370.759" height="247.172"/>
<path style="fill:#B8BFD4;" d="M335.448,436.966h70.621c4.875,0,8.828-3.953,8.828-8.828V260.414c0-4.875-3.953-8.828-8.828-8.828
	h-70.621c-4.875,0-8.828,3.953-8.828,8.828v167.724C326.621,433.013,330.573,436.966,335.448,436.966z"/>
<path style="fill:#959CB3;" d="M308.966,436.966h79.448c4.875,0,8.828-3.953,8.828-8.828V216.276c0-4.875-3.953-8.828-8.828-8.828
	h-79.448c-4.875,0-8.828,3.953-8.828,8.828v211.862C300.138,433.013,304.09,436.966,308.966,436.966z"/>
<path style="fill:#B8BFD4;" d="M264.828,436.966h70.621c4.875,0,8.828-3.953,8.828-8.828v-256c0-4.875-3.953-8.828-8.828-8.828
	h-70.621c-4.875,0-8.828,3.953-8.828,8.828v256C256,433.013,259.953,436.966,264.828,436.966z"/>
<path style="fill:#959CB3;" d="M158.897,436.966h70.621c4.875,0,8.828-3.953,8.828-8.828V189.793c0-4.875-3.953-8.828-8.828-8.828
	h-70.621c-4.875,0-8.828,3.953-8.828,8.828v238.345C150.069,433.013,154.022,436.966,158.897,436.966z"/>
<path style="fill:#B8BFD4;" d="M97.103,436.966h70.621c4.875,0,8.828-3.953,8.828-8.828V242.759c0-4.875-3.953-8.828-8.828-8.828
	H97.103c-4.875,0-8.828,3.953-8.828,8.828v185.379C88.276,433.013,92.228,436.966,97.103,436.966z"/>
<path style="fill:#C7CFE2;" d="M203.034,436.966h88.276c4.875,0,8.828-3.953,8.828-8.828V286.897c0-4.875-3.953-8.828-8.828-8.828
	h-88.276c-4.875,0-8.828,3.953-8.828,8.828v141.241C194.207,433.013,198.159,436.966,203.034,436.966z"/>
<path style="fill:#707384;" d="M0,92.69v229.517c0,14.626,11.857,26.483,26.483,26.483h459.034
	c14.626,0,26.483-11.857,26.483-26.483V92.69c0-14.626-11.857-26.483-26.483-26.483H26.483C11.857,66.207,0,78.063,0,92.69z
	 M441.379,83.862v247.172H70.621V83.862H441.379z"/>
<g>
	<path style="fill:#464655;" d="M44.138,180.966v52.966c0,4.875-3.953,8.828-8.828,8.828l0,0c-4.875,0-8.828-3.953-8.828-8.828
		v-52.966c0-4.875,3.953-8.828,8.828-8.828l0,0C40.185,172.138,44.138,176.09,44.138,180.966z"/>
	<path style="fill:#464655;" d="M44.138,269.241L44.138,269.241c0,4.875-3.953,8.828-8.828,8.828l0,0
		c-4.875,0-8.828-3.953-8.828-8.828l0,0c0-4.875,3.953-8.828,8.828-8.828l0,0C40.185,260.414,44.138,264.366,44.138,269.241z"/>
	<circle style="fill:#464655;" cx="476.69" cy="207.448" r="17.655"/>
</g>
<path style="fill:#959CB3;" d="M503.172,445.793H8.828c-4.875,0-8.828-3.953-8.828-8.828l0,0c0-4.875,3.953-8.828,8.828-8.828
	h494.345c4.875,0,8.828,3.953,8.828,8.828l0,0C512,441.841,508.047,445.793,503.172,445.793z"/>
<path style="fill:#FF6464;" d="M247.172,101.517H141.241c-4.875,0-8.828,3.953-8.828,8.828v35.31c0,4.875,3.953,8.828,8.828,8.828
	h35.31l11.413,11.413c3.447,3.447,9.037,3.447,12.484,0l11.413-11.413h35.31c4.875,0,8.828-3.953,8.828-8.828v-35.31
	C256,105.47,252.047,101.517,247.172,101.517z"/>
<path style="fill:#FFD782;" d="M158.897,136.828h8.828c4.875,0,8.828-3.953,8.828-8.828l0,0c0-4.875-3.953-8.828-8.828-8.828h-8.828
	c-4.875,0-8.828,3.953-8.828,8.828l0,0C150.069,132.875,154.022,136.828,158.897,136.828z"/>
<path style="fill:#D2555A;" d="M194.207,136.828h35.31c4.875,0,8.828-3.953,8.828-8.828l0,0c0-4.875-3.953-8.828-8.828-8.828h-35.31
	c-4.875,0-8.828,3.953-8.828,8.828l0,0C185.379,132.875,189.332,136.828,194.207,136.828z"/>
<path style="fill:#FFD782;" d="M291.31,198.621h-88.276c-4.875,0-8.828,3.953-8.828,8.828v35.31c0,4.875,3.953,8.828,8.828,8.828
	h26.483l11.413,11.413c3.447,3.447,9.037,3.447,12.484,0l11.413-11.413h26.483c4.875,0,8.828-3.953,8.828-8.828v-35.31
	C300.138,202.573,296.185,198.621,291.31,198.621z"/>
<path style="fill:#FFFFFF;" d="M220.69,233.931L220.69,233.931c4.875,0,8.828-3.953,8.828-8.828l0,0
	c0-4.875-3.953-8.828-8.828-8.828l0,0c-4.875,0-8.828,3.953-8.828,8.828l0,0C211.862,229.978,215.815,233.931,220.69,233.931z"/>
<path style="fill:#FFC36E;" d="M247.172,233.931h26.483c4.875,0,8.828-3.953,8.828-8.828l0,0c0-4.875-3.953-8.828-8.828-8.828
	h-26.483c-4.875,0-8.828,3.953-8.828,8.828l0,0C238.345,229.978,242.297,233.931,247.172,233.931z"/>
<g>
	<circle style="fill:#FFD782;" cx="326.621" cy="304.552" r="8.828"/>
	<circle style="fill:#FFD782;" cx="326.621" cy="278.069" r="8.828"/>
	<circle style="fill:#FFD782;" cx="326.621" cy="251.586" r="8.828"/>
</g>
<path style="fill:#96E17D;" d="M158.897,198.621c0-14.626-11.857-26.483-26.483-26.483c-14.626,0-26.483,11.857-26.483,26.483
	c0,11.514,7.393,21.213,17.655,24.861v10.45c0,4.875,3.953,8.828,8.828,8.828c4.875,0,8.828-3.953,8.828-8.828v-10.45
	C151.503,219.833,158.897,210.135,158.897,198.621z"/>
<circle style="fill:#6EC864;" cx="132.414" cy="198.621" r="13.241"/>
<g>
	<path style="fill:#FFC36E;" d="M379.586,260.414h-26.483c-4.875,0-8.828-3.953-8.828-8.828l0,0c0-4.875,3.953-8.828,8.828-8.828
		h26.483c4.875,0,8.828,3.953,8.828,8.828l0,0C388.414,256.461,384.461,260.414,379.586,260.414z"/>
	<path style="fill:#FFC36E;" d="M397.241,313.379h-44.138c-4.875,0-8.828-3.953-8.828-8.828l0,0c0-4.875,3.953-8.828,8.828-8.828
		h44.138c4.875,0,8.828,3.953,8.828,8.828l0,0C406.069,309.427,402.116,313.379,397.241,313.379z"/>
	<path style="fill:#FFC36E;" d="M379.586,286.897h-26.483c-4.875,0-8.828-3.953-8.828-8.828l0,0c0-4.875,3.953-8.828,8.828-8.828
		h26.483c4.875,0,8.828,3.953,8.828,8.828l0,0C388.414,282.944,384.461,286.897,379.586,286.897z"/>
</g>
<path style="fill:#00D2FF;" d="M379.586,128H291.31c-4.875,0-8.828,3.953-8.828,8.828v35.31c0,4.875,3.953,8.828,8.828,8.828h26.483
	l11.413,11.413c3.447,3.447,9.037,3.447,12.484,0l11.413-11.413h26.483c4.875,0,8.828-3.953,8.828-8.828v-35.31
	C388.414,131.953,384.461,128,379.586,128z"/>
<path style="fill:#FFFFFF;" d="M308.966,163.31L308.966,163.31c4.875,0,8.828-3.953,8.828-8.828l0,0
	c0-4.875-3.953-8.828-8.828-8.828l0,0c-4.875,0-8.828,3.953-8.828,8.828l0,0C300.138,159.358,304.09,163.31,308.966,163.31z"/>
<g>
	<path style="fill:#B8E9FF;" d="M335.448,163.31L335.448,163.31c4.875,0,8.828-3.953,8.828-8.828l0,0
		c0-4.875-3.953-8.828-8.828-8.828l0,0c-4.875,0-8.828,3.953-8.828,8.828l0,0C326.621,159.358,330.573,163.31,335.448,163.31z"/>
	<path style="fill:#B8E9FF;" d="M361.931,163.31L361.931,163.31c4.875,0,8.828-3.953,8.828-8.828l0,0
		c0-4.875-3.953-8.828-8.828-8.828l0,0c-4.875,0-8.828,3.953-8.828,8.828l0,0C353.103,159.358,357.056,163.31,361.931,163.31z"/>
</g>
<g>
</g>
<g>
</g>
<g>
</g>
<g>
</g>
<g>
</g>
<g>
</g>
<g>
</g>
<g>
</g>
<g>
</g>
<g>
</g>
<g>
</g>
<g>
</g>
<g>
</g>
<g>
</g>
<g>
</g>
</svg>
