<?xml version="1.0" encoding="iso-8859-1"?>
<!-- Generator: Adobe Illustrator 19.0.0, SVG Export Plug-In . SVG Version: 6.00 Build 0)  -->
<svg version="1.1" id="Capa_1" xmlns="http://www.w3.org/2000/svg" xmlns:xlink="http://www.w3.org/1999/xlink" x="0px" y="0px"
	 viewBox="0 0 496 496" style="enable-background:new 0 0 496 496;" xml:space="preserve">
<g>
	<rect x="256" y="36" style="fill:#AC92EC;" width="32" height="32"/>
	<rect x="328" y="4" style="fill:#AC92EC;" width="80" height="80"/>
	<rect x="392" y="116" style="fill:#AC92EC;" width="40" height="40"/>
</g>
<rect x="376" y="220" style="fill:#CCD1D9;" width="120" height="24"/>
<rect x="376" y="244" style="fill:#E6E9ED;" width="120" height="88"/>
<path style="fill:#5D9CEC;" d="M224,396l24-8l24,8l16-16h32c26.56,0,48,21.44,48,48v2.232V476c0,8.8-7.12,16-16,16H144
	c-8.88,0-16-7.2-16-16v-45.768V428c0-26.56,21.44-48,48-48h32L224,396z"/>
<path style="fill:#4A89DC;" d="M320,380h-32c26.56,0,48,21.44,48,48v2.232V476c0,8.8-7.12,16-16,16h32c8.88,0,16-7.2,16-16v-45.768
	V428C368,401.44,346.56,380,320,380z"/>
<path style="fill:#F5F7FA;" d="M248,388l-24,8l-16-16v-25.6c12,6.16,25.6,9.6,40,9.6s28-3.448,40-9.6V380l-16,16L248,388z"/>
<path style="fill:#EAC6BB;" d="M336,244v32c0,34.16-19.52,63.832-48,78.4c-12,6.16-25.6,9.6-40,9.6s-28-3.448-40-9.6
	c-28.48-14.56-48-44.24-48-78.4v-32l24-24c0,0,29.68,16,64,16s64-16,64-16L336,244z"/>
<path style="fill:#D3B1A9;" d="M312,220c0,0-2.928,1.576-8,3.744V276c0,34.16-19.52,63.832-48,78.4
	c-7.432,3.816-15.528,6.44-24,7.992c5.2,0.96,10.512,1.608,16,1.608c14.4,0,28-3.448,40-9.6c28.48-14.56,48-44.24,48-78.4v-32
	L312,220z"/>
<path style="fill:#965353;" d="M184,220l-24,24v-40c0-39.84,32.24-72,72-72h64v32c22.08,0,40,17.832,40,40v40l-24-24
	c0,0-29.68,16-64,16S184,220,184,220z"/>
<path style="fill:#844747;" d="M296,164v-32h-32v48c22.08,0,40,9.832,40,32v11.744c5.072-2.168,8-3.744,8-3.744l24,24v-40
	C336,181.832,318.08,164,296,164z"/>
<polygon style="fill:#E6E9ED;" points="48,300 63.52,320.72 56,332 24,332 "/>
<polygon style="fill:#F5F7FA;" points="88,284 120,332 56,332 63.52,320.72 "/>
<polygon style="fill:#48CFAD;" points="120,236 120,332 88,284 63.52,320.72 48,300 24,332 0,332 0,236 "/>
<g>
	<path style="fill:#A0D468;" d="M155.84,67.912L155.68,68H104c-8.8,0-16-7.2-16-16c0-8.88,7.2-16,16-16h29.12
		C143.44,44.232,151.36,55.192,155.84,67.912z"/>
	<path style="fill:#A0D468;" d="M56,116c8.8,0,16,7.12,16,16c0,8.8-7.2,16-16,16H42.88c-10.32-8.24-18.24-19.28-22.728-32H56z"/>
</g>
<path style="fill:#5D9CEC;" d="M88,20c17.12,0,32.8,6,45.12,16H104c-8.8,0-16,7.12-16,16c0,8.8,7.2,16,16,16h51.68l0.168-0.088
	C158.56,75.44,160,83.512,160,92c0,39.76-32.24,72-72,72c-17.12,0-32.8-6-45.12-16H56c8.8,0,16-7.2,16-16c0-8.88-7.2-16-16-16H20.16
	C17.44,108.552,16,100.48,16,92C16,52.232,48.24,20,88,20z"/>
<g>
	<path style="fill:#AAB2BD;" d="M464,284h-55.336c-4.424,0-8-3.576-8-8s3.576-8,8-8H464c4.424,0,8,3.576,8,8S468.424,284,464,284z"
		/>
	<path style="fill:#AAB2BD;" d="M440,308h-31.336c-4.424,0-8-3.576-8-8s3.576-8,8-8H440c4.424,0,8,3.576,8,8S444.424,308,440,308z"
		/>
</g>
<path style="fill:#FFCE54;" d="M32.248,279.968c-6.616,0-12.032-5.352-12.032-11.968s5.296-11.968,11.904-11.968h0.128
	c6.608,0,11.968,5.352,11.968,11.968S38.856,279.968,32.248,279.968z"/>
<g>
</g>
<g>
</g>
<g>
</g>
<g>
</g>
<g>
</g>
<g>
</g>
<g>
</g>
<g>
</g>
<g>
</g>
<g>
</g>
<g>
</g>
<g>
</g>
<g>
</g>
<g>
</g>
<g>
</g>
</svg>
